<svg width="25" height="25" viewBox="0 0 25 25" fill="none" xmlns="http://www.w3.org/2000/svg">
<path d="M23.0159 11.6445C22.192 9.90874 21.2116 8.49312 20.0745 7.39765L18.882 8.59015C19.8544 9.51944 20.7015 10.7351 21.4339 12.2492C19.4839 16.2851 16.7159 18.2023 12.9331 18.2023C11.7976 18.2023 10.7518 18.0275 9.79554 17.6778L8.50343 18.9699C9.83156 19.5832 11.3081 19.8898 12.9331 19.8898C17.4378 19.8898 20.7987 17.5437 23.0159 12.8516C23.1051 12.6628 23.1513 12.4567 23.1513 12.248C23.1513 12.0393 23.1051 11.8332 23.0159 11.6445ZM21.526 4.12952L20.5269 3.12921C20.5095 3.11178 20.4888 3.09795 20.466 3.08851C20.4433 3.07908 20.4189 3.07422 20.3942 3.07422C20.3696 3.07422 20.3452 3.07908 20.3224 3.08851C20.2997 3.09795 20.279 3.11178 20.2616 3.12921L17.6982 5.6914C16.2849 4.96952 14.6966 4.60859 12.9331 4.60859C8.42843 4.60859 5.06749 6.95468 2.85031 11.6469C2.76119 11.8356 2.71497 12.0417 2.71497 12.2504C2.71497 12.4591 2.76119 12.6652 2.85031 12.8539C3.73609 14.7195 4.80249 16.2149 6.04953 17.3401L3.56937 19.8195C3.53423 19.8547 3.51449 19.9024 3.51449 19.9521C3.51449 20.0018 3.53423 20.0494 3.56937 20.0846L4.56992 21.0851C4.60508 21.1203 4.65275 21.14 4.70245 21.14C4.75216 21.14 4.79983 21.1203 4.83499 21.0851L21.526 4.39484C21.5434 4.37742 21.5573 4.35674 21.5667 4.33398C21.5761 4.31122 21.581 4.28682 21.581 4.26218C21.581 4.23754 21.5761 4.21314 21.5667 4.19038C21.5573 4.16762 21.5434 4.14694 21.526 4.12952ZM4.43234 12.2492C6.38468 8.21327 9.15265 6.29608 12.9331 6.29608C14.2114 6.29608 15.3737 6.51546 16.4281 6.96148L14.7805 8.60913C14.0002 8.1928 13.1067 8.03828 12.2319 8.16838C11.3571 8.29848 10.5472 8.7063 9.92185 9.33169C9.29646 9.95708 8.88864 10.7669 8.75854 11.6417C8.62844 12.5165 8.78295 13.41 9.19929 14.1903L7.24413 16.1455C6.16202 15.1904 5.22921 13.8964 4.43234 12.2492ZM10.2144 12.2492C10.2148 11.8359 10.3127 11.4286 10.5001 11.0602C10.6875 10.6919 10.9592 10.3729 11.293 10.1293C11.6269 9.88568 12.0135 9.72425 12.4214 9.65811C12.8294 9.59197 13.2472 9.62299 13.6409 9.74866L10.3388 13.0508C10.2561 12.7916 10.2141 12.5212 10.2144 12.2492Z" fill="black"/>
<path d="M12.8393 14.8766C12.7583 14.8766 12.6783 14.8729 12.5991 14.8656L11.3611 16.1036C12.1057 16.3887 12.917 16.4521 13.6968 16.286C14.4766 16.12 15.1917 15.7315 15.7555 15.1678C16.3193 14.604 16.7077 13.8889 16.8737 13.1091C17.0398 12.3293 16.9765 11.518 16.6913 10.7734L15.4533 12.0114C15.4606 12.0906 15.4643 12.1705 15.4643 12.2516C15.4645 12.5964 15.3968 12.9378 15.2649 13.2564C15.1331 13.575 14.9397 13.8644 14.6959 14.1082C14.4521 14.352 14.1627 14.5453 13.8441 14.6772C13.5255 14.8091 13.1841 14.8768 12.8393 14.8766Z" fill="black"/>
</svg>
