<svg width="25" height="25" viewBox="0 0 25 25" fill="none" xmlns="http://www.w3.org/2000/svg">
<path d="M23.0159 11.6453C20.7941 6.96484 17.4355 4.60938 12.9331 4.60938C8.42843 4.60938 5.07218 6.96484 2.85031 11.6477C2.76119 11.8364 2.71497 12.0425 2.71497 12.2512C2.71497 12.4599 2.76119 12.666 2.85031 12.8547C5.07218 17.5352 8.43077 19.8906 12.9331 19.8906C17.4378 19.8906 20.7941 17.5352 23.0159 12.8523C23.1964 12.4727 23.1964 12.032 23.0159 11.6453ZM12.9331 18.2031C9.15265 18.2031 6.38468 16.2859 4.43234 12.25C6.38468 8.21406 9.15265 6.29688 12.9331 6.29688C16.7136 6.29688 19.4816 8.21406 21.4339 12.25C19.4839 16.2859 16.7159 18.2031 12.9331 18.2031ZM12.8394 8.125C10.5612 8.125 8.71437 9.97188 8.71437 12.25C8.71437 14.5281 10.5612 16.375 12.8394 16.375C15.1175 16.375 16.9644 14.5281 16.9644 12.25C16.9644 9.97188 15.1175 8.125 12.8394 8.125ZM12.8394 14.875C11.3886 14.875 10.2144 13.7008 10.2144 12.25C10.2144 10.7992 11.3886 9.625 12.8394 9.625C14.2901 9.625 15.4644 10.7992 15.4644 12.25C15.4644 13.7008 14.2901 14.875 12.8394 14.875Z" fill="black"/>
</svg>
