<svg width="27" height="27" viewBox="0 0 27 27" fill="none" xmlns="http://www.w3.org/2000/svg">
<g clip-path="url(#clip0_5757_2)">
<path fill-rule="evenodd" clip-rule="evenodd" d="M13.4598 0C6.01687 0 0 6.06122 0 13.5598C0 19.5538 3.85521 24.6276 9.20342 26.4234C9.87208 26.5584 10.117 26.1316 10.117 25.7726C10.117 25.4582 10.095 24.3807 10.095 23.258C6.35079 24.0664 5.57109 21.6416 5.57109 21.6416C4.96938 20.0701 4.07783 19.6662 4.07783 19.6662C2.85236 18.8355 4.16709 18.8355 4.16709 18.8355C5.52646 18.9253 6.23976 20.2274 6.23976 20.2274C7.44291 22.2926 9.38167 21.7091 10.1616 21.3498C10.2729 20.4743 10.6297 19.8681 11.0086 19.5315C8.02231 19.2171 4.88039 18.0498 4.88039 12.8413C4.88039 11.3596 5.41488 10.1473 6.2618 9.20452C6.12817 8.86785 5.66008 7.47569 6.39569 5.61242C6.39569 5.61242 7.53217 5.25315 10.0947 7.0043C11.1918 6.70748 12.3232 6.55649 13.4598 6.55521C14.5963 6.55521 15.7548 6.71253 16.8246 7.0043C19.3874 5.25315 20.5239 5.61242 20.5239 5.61242C21.2595 7.47569 20.7911 8.86785 20.6575 9.20452C21.5267 10.1473 22.0392 11.3596 22.0392 12.8413C22.0392 18.0498 18.8972 19.1945 15.8887 19.5315C16.3791 19.958 16.8023 20.766 16.8023 22.0458C16.8023 23.8641 16.7802 25.3235 16.7802 25.7723C16.7802 26.1316 17.0254 26.5584 17.6938 26.4236C23.042 24.6273 26.8972 19.5538 26.8972 13.5598C26.9193 6.06122 20.8804 0 13.4598 0Z" fill="#24292F"/>
</g>
<defs>
<clipPath id="clip0_5757_2">
<rect width="27" height="26.449" fill="white"/>
</clipPath>
</defs>
</svg>
