<svg width="27" height="26" viewBox="0 0 27 26" fill="none" xmlns="http://www.w3.org/2000/svg">
<path d="M23.6952 10.8783H22.821V10.8333H13.0536V15.1667H19.187C18.2922 17.6892 15.8878 19.5 13.0536 19.5C9.45757 19.5 6.542 16.5896 6.542 13C6.542 9.41037 9.45757 6.5 13.0536 6.5C14.7135 6.5 16.2237 7.12508 17.3735 8.14612L20.4432 5.08191C18.5049 3.27871 15.9122 2.16666 13.0536 2.16666C7.06021 2.16666 2.20093 7.01729 2.20093 13C2.20093 18.9827 7.06021 23.8333 13.0536 23.8333C19.047 23.8333 23.9063 18.9827 23.9063 13C23.9063 12.2736 23.8314 11.5646 23.6952 10.8783Z" fill="#FFC107"/>
<path d="M3.45215 7.95762L7.0178 10.5679C7.9826 8.1835 10.3192 6.5 13.0535 6.5C14.7134 6.5 16.2236 7.12508 17.3734 8.14612L20.4431 5.08191C18.5048 3.27871 15.9121 2.16666 13.0535 2.16666C8.885 2.16666 5.26997 4.51587 3.45215 7.95762Z" fill="#FF3D00"/>
<path d="M13.0534 23.8333C15.8567 23.8333 18.4038 22.7625 20.3296 21.021L16.9707 18.1838C15.8445 19.0387 14.4683 19.5011 13.0534 19.5C10.2307 19.5 7.83385 17.7033 6.9309 15.1959L3.39185 17.9178C5.18796 21.4262 8.83555 23.8333 13.0534 23.8333Z" fill="#4CAF50"/>
<path d="M23.6951 10.8783H22.8209V10.8333H13.0535V15.1667H19.1869C18.7588 16.3672 17.9878 17.4163 16.9691 18.1843L16.9707 18.1832L20.3296 21.0205C20.092 21.236 23.9061 18.4167 23.9061 13C23.9061 12.2736 23.8313 11.5646 23.6951 10.8783Z" fill="#1976D2"/>
</svg>
