<svg width="13" height="14" viewBox="0 0 13 14" fill="none" xmlns="http://www.w3.org/2000/svg">
<path d="M6.49825 4.66567C5.30472 4.66567 4.3307 5.71463 4.3307 7C4.3307 8.28537 5.30472 9.33433 6.49825 9.33433C7.69179 9.33433 8.6658 8.28537 8.6658 7C8.6658 5.71463 7.69179 4.66567 6.49825 4.66567ZM12.9993 7C12.9993 6.03335 13.0074 5.07545 12.957 4.11055C12.9066 2.98979 12.6692 1.99512 11.9082 1.17556C11.1456 0.35426 10.2236 0.100338 9.18289 0.0460516C8.2853 -0.00823506 7.39584 0.000520879 6.49988 0.000520879C5.60229 0.000520879 4.71283 -0.00823506 3.81687 0.0460516C2.77618 0.100338 1.85258 0.356011 1.09158 1.17556C0.328949 1.99687 0.0931695 2.98979 0.0427614 4.11055C-0.0076467 5.0772 0.000483665 6.0351 0.000483665 7C0.000483665 7.9649 -0.0076467 8.92455 0.0427614 9.88945C0.0931695 11.0102 0.330576 12.0049 1.09158 12.8244C1.8542 13.6457 2.77618 13.8997 3.81687 13.9539C4.71446 14.0082 5.60391 13.9995 6.49988 13.9995C7.39747 13.9995 8.28693 14.0082 9.18289 13.9539C10.2236 13.8997 11.1472 13.644 11.9082 12.8244C12.6708 12.0031 12.9066 11.0102 12.957 9.88945C13.009 8.92455 12.9993 7.96665 12.9993 7V7ZM6.49825 10.5917C4.65266 10.5917 3.16319 8.98759 3.16319 7C3.16319 5.01241 4.65266 3.40832 6.49825 3.40832C8.34384 3.40832 9.83332 5.01241 9.83332 7C9.83332 8.98759 8.34384 10.5917 6.49825 10.5917ZM9.96991 4.10004C9.539 4.10004 9.19102 3.72529 9.19102 3.26122C9.19102 2.79716 9.539 2.42241 9.96991 2.42241C10.4008 2.42241 10.7488 2.79716 10.7488 3.26122C10.7489 3.37142 10.7289 3.48056 10.6898 3.58239C10.6507 3.68422 10.5933 3.77675 10.521 3.85467C10.4486 3.93258 10.3627 3.99437 10.2681 4.03647C10.1736 4.07858 10.0722 4.10018 9.96991 4.10004V4.10004Z" fill="white" fill-opacity="0.54"/>
</svg>
