<svg width="14" height="14" viewBox="0 0 14 14" fill="none" xmlns="http://www.w3.org/2000/svg">
<g clip-path="url(#clip0_1157_62)">
<path d="M7 0C10.8596 0 14 2.548 14 5.6805C14 6.93438 13.5144 8.06313 12.4994 9.17525C11.0311 10.8658 7.74725 12.9246 7 13.2396C6.27375 13.5459 6.35775 13.0673 6.391 12.8783L6.39363 12.8625L6.49338 12.2631C6.517 12.0846 6.5415 11.8073 6.47062 11.6305C6.39187 11.4354 6.08212 11.3339 5.85462 11.2849C2.49025 10.8413 0 8.48838 0 5.6805C0 2.548 3.14125 0 7 0ZM4.39425 6.72525H3.05987V4.30325C3.05988 4.2672 3.04561 4.23261 3.0202 4.20704C2.9948 4.18146 2.9603 4.16698 2.92425 4.16675H2.4325C2.41457 4.16675 2.39682 4.17028 2.38026 4.17714C2.3637 4.184 2.34866 4.19406 2.33598 4.20673C2.3233 4.21941 2.31325 4.23445 2.30639 4.25101C2.29953 4.26757 2.296 4.28533 2.296 4.30325V7.3535C2.296 7.38938 2.31087 7.4235 2.3345 7.44713V7.448L2.33625 7.44975L2.338 7.4515C2.36338 7.47591 2.39729 7.48941 2.4325 7.48913H4.39425C4.4695 7.48913 4.52988 7.42788 4.52988 7.35263V6.86263C4.52999 6.8447 4.52657 6.82693 4.51982 6.81032C4.51307 6.79372 4.50311 6.7786 4.49051 6.76585C4.47792 6.75309 4.46294 6.74294 4.44642 6.73597C4.4299 6.72901 4.41218 6.72536 4.39425 6.72525V6.72525ZM5.08638 4.16675C5.05017 4.16675 5.01545 4.18113 4.98986 4.20673C4.96426 4.23233 4.94988 4.26705 4.94988 4.30325V7.3535C4.94988 7.42875 5.01113 7.48913 5.08638 7.48913H5.57812C5.65338 7.48913 5.71375 7.42788 5.71375 7.3535V4.30325C5.71375 4.2672 5.69949 4.23261 5.67408 4.20704C5.64867 4.18146 5.61418 4.16698 5.57812 4.16675H5.08638ZM8.4665 4.16675C8.4303 4.16675 8.39558 4.18113 8.36998 4.20673C8.34438 4.23233 8.33 4.26705 8.33 4.30325V6.1145L6.93262 4.228C6.92909 4.22341 6.92529 4.21902 6.92125 4.21488V4.214C6.91848 4.21094 6.91556 4.20802 6.9125 4.20525L6.90987 4.20263C6.90687 4.19976 6.90366 4.19712 6.90025 4.19475H6.89938L6.895 4.19125L6.89237 4.1895C6.89101 4.18848 6.88954 4.1876 6.888 4.18688L6.881 4.1825H6.87925L6.87663 4.18075L6.86787 4.17725L6.86437 4.1755C6.86151 4.17446 6.85859 4.17359 6.85563 4.17288H6.85388L6.85125 4.172L6.84338 4.17025H6.83813L6.8355 4.16938H6.832L6.83025 4.1685H6.328C6.29195 4.1685 6.25736 4.18276 6.23179 4.20817C6.20621 4.23358 6.19173 4.26808 6.1915 4.30413V7.35438C6.1915 7.42963 6.25275 7.49 6.328 7.49H6.818C6.89412 7.49 6.95537 7.42875 6.95537 7.35438V5.54313L8.35537 7.43313C8.36468 7.44615 8.37624 7.45741 8.3895 7.46638L8.39037 7.46725L8.39912 7.4725L8.40262 7.47425C8.40488 7.47557 8.40722 7.47674 8.40963 7.47775L8.41575 7.48038L8.42013 7.48213C8.42301 7.48309 8.42593 7.48397 8.42888 7.48475H8.4315C8.44289 7.48802 8.45465 7.48979 8.4665 7.49H8.9565C9.03263 7.49 9.09387 7.42875 9.09387 7.35438V4.30325C9.09387 4.26705 9.07949 4.23233 9.0539 4.20673C9.0283 4.18113 8.99358 4.16675 8.95738 4.16675H8.4665V4.16675ZM11.8046 4.79413V4.30413C11.8047 4.2862 11.8013 4.26843 11.7946 4.25182C11.7878 4.23522 11.7779 4.2201 11.7653 4.20735C11.7527 4.19459 11.7377 4.18444 11.7212 4.17747C11.7047 4.17051 11.6869 4.16686 11.669 4.16675H9.70725C9.67194 4.16679 9.63804 4.1806 9.61275 4.20525H9.61187L9.611 4.207L9.60925 4.20963C9.58481 4.23469 9.57102 4.26824 9.57075 4.30325V7.3535C9.57075 7.38938 9.58563 7.4235 9.60925 7.44713L9.611 7.44975L9.61275 7.4515C9.63818 7.47583 9.67206 7.48932 9.70725 7.48913H11.669C11.7443 7.48913 11.8046 7.42788 11.8046 7.35263V6.86263C11.8047 6.8447 11.8013 6.82693 11.7946 6.81032C11.7878 6.79372 11.7779 6.7786 11.7653 6.76585C11.7527 6.75309 11.7377 6.74294 11.7212 6.73597C11.7047 6.72901 11.6869 6.72536 11.669 6.72525H10.3338V6.20988H11.6681C11.7434 6.20988 11.8037 6.14863 11.8037 6.07338V5.58338C11.8039 5.56545 11.8004 5.54768 11.7937 5.53107C11.7869 5.51447 11.777 5.49935 11.7644 5.4866C11.7518 5.47384 11.7368 5.46369 11.7203 5.45672C11.7038 5.44976 11.6861 5.44611 11.6681 5.446H10.3338V4.93063H11.6681C11.7434 4.93063 11.8037 4.86938 11.8037 4.79413H11.8046Z" fill="white" fill-opacity="0.54"/>
</g>
<defs>
<clipPath id="clip0_1157_62">
<rect width="14" height="14" fill="white"/>
</clipPath>
</defs>
</svg>
