<svg width="13" height="13" viewBox="0 0 13 13" fill="none" xmlns="http://www.w3.org/2000/svg">
<path fill-rule="evenodd" clip-rule="evenodd" d="M1.60762e-07 1.08609C1.60762e-07 0.798043 0.114427 0.521792 0.318109 0.31811C0.52179 0.114429 0.798042 1.44791e-06 1.08609 1.44791e-06H11.9127C12.0555 -0.000231696 12.1969 0.0276932 12.3288 0.0821772C12.4608 0.136661 12.5807 0.216634 12.6816 0.317518C12.7826 0.418402 12.8627 0.538215 12.9174 0.670098C12.972 0.801981 13.0001 0.943343 13 1.08609V11.9127C13.0002 12.0555 12.9722 12.1969 12.9176 12.3289C12.8631 12.4608 12.783 12.5807 12.6821 12.6817C12.5812 12.7827 12.4613 12.8628 12.3294 12.9174C12.1975 12.972 12.0561 13.0001 11.9133 13H1.08609C0.943414 13 0.802135 12.9719 0.670325 12.9173C0.538516 12.8627 0.41876 12.7826 0.3179 12.6817C0.217039 12.5808 0.137051 12.461 0.0825043 12.3291C0.0279578 12.1973 -7.74656e-05 12.056 1.60762e-07 11.9133V1.08609ZM5.14564 4.95655H6.90595V5.84055C7.16005 5.33236 7.81005 4.875 8.78682 4.875C10.6594 4.875 11.1032 5.88723 11.1032 7.74446V11.1847H9.20814V8.16755C9.20814 7.10982 8.95404 6.513 8.30877 6.513C7.41355 6.513 7.04127 7.1565 7.04127 8.16755V11.1847H5.14564V4.95655ZM1.89564 11.1038H3.79127V4.875H1.89564V11.1032V11.1038ZM4.0625 2.84346C4.06607 3.00576 4.03719 3.16715 3.97755 3.31814C3.91791 3.46914 3.82871 3.60669 3.71518 3.72275C3.60166 3.8388 3.46609 3.93101 3.31645 3.99396C3.16681 4.05691 3.0061 4.08934 2.84375 4.08934C2.6814 4.08934 2.52069 4.05691 2.37105 3.99396C2.22141 3.93101 2.08584 3.8388 1.97232 3.72275C1.85879 3.60669 1.76959 3.46914 1.70995 3.31814C1.65031 3.16715 1.62143 3.00576 1.625 2.84346C1.63202 2.52487 1.7635 2.2217 1.9913 1.99886C2.21909 1.77603 2.52509 1.65125 2.84375 1.65125C3.16241 1.65125 3.46841 1.77603 3.6962 1.99886C3.924 2.2217 4.05548 2.52487 4.0625 2.84346V2.84346Z" fill="white" fill-opacity="0.54"/>
</svg>
