<svg width="100" height="100" viewBox="0 0 100 100" fill="none" xmlns="http://www.w3.org/2000/svg">
<g clip-path="url(#clip0_90_466)">
<path d="M30.7271 30.6257H61.5011V-0.0155182H30.7271V30.6257Z" fill="#D62340"/>
<path d="M77.2136 30.8262L60.3096 30.8262C60.3096 47.7189 74.0557 61.4674 91.0836 61.4674V44.5746C83.4056 44.5746 77.2136 38.4094 77.2136 30.8262Z" fill="#D62340"/>
<path d="M60.3224 99.985H100.013V61.5756H60.3224V99.985Z" fill="#2E2E2E"/>
<path d="M61.486 78.4217V61.529C44.5201 61.529 30.712 75.2158 30.712 92.1702H47.678C47.678 84.5869 53.8699 78.4217 61.486 78.4217Z" fill="#D62340"/>
<path d="M-0.0155735 61.4364H30.7584V30.7952H-0.0155735V61.4364Z" fill="#D62340"/>
<path d="M7.66236 53.7914H23.0803V38.44H7.66236V53.7914Z" fill="white"/>
<path d="M44.5821 61.4674H61.4861C61.4861 44.513 47.74 30.8262 30.774 30.8262L30.774 47.6572C38.3901 47.6572 44.5821 53.8225 44.5821 61.4674Z" fill="#2E2E2E"/>
<path d="M61.1765 29.0999C61.1765 28.2368 61.8576 27.6202 62.6626 27.6202C63.4675 27.6202 64.1486 28.2984 64.1486 29.0999C64.1486 29.963 63.4675 30.5795 62.6626 30.5795C61.8576 30.5795 61.1765 29.963 61.1765 29.0999Z" fill="#D62340"/>
<path d="M67.6781 29.0999C67.6781 28.2368 68.3592 27.6202 69.1642 27.6202C70.031 27.6202 70.6502 28.2984 70.6502 29.0999C70.6502 29.963 69.9691 30.5795 69.1642 30.5795C68.3592 30.6412 67.6781 29.963 67.6781 29.0999Z" fill="#D62340"/>
<path d="M74.1796 29.0999C74.1796 28.2368 74.8607 27.6202 75.6656 27.6202C76.5325 27.6202 77.1517 28.2984 77.1517 29.0999C77.1517 29.963 76.4706 30.5795 75.6656 30.5795C74.8607 30.6412 74.1796 29.963 74.1796 29.0999Z" fill="#D62340"/>
<path d="M80.6812 29.0999C80.6812 28.2368 81.3623 27.6202 82.1672 27.6202C83.0341 27.6202 83.6533 28.2984 83.6533 29.0999C83.6533 29.963 82.9722 30.5795 82.1672 30.5795C81.3623 30.6412 80.6812 29.963 80.6812 29.0999Z" fill="#D62340"/>
<path d="M87.1207 29.0999C87.1207 28.2368 87.8018 27.6202 88.6068 27.6202C89.4737 27.6202 90.0929 28.2984 90.0929 29.0999C90.0929 29.963 89.4118 30.5795 88.6068 30.5795C87.8018 30.6412 87.1207 29.963 87.1207 29.0999Z" fill="#D62340"/>
<path d="M61.1765 23.6128C61.1765 22.7497 61.8576 22.1332 62.6626 22.1332C63.4675 22.1332 64.1486 22.8114 64.1486 23.6128C64.1486 24.476 63.4675 25.0925 62.6626 25.0925C61.8576 25.0925 61.1765 24.4143 61.1765 23.6128Z" fill="#D62340"/>
<path d="M67.6781 23.6128C67.6781 22.7497 68.3592 22.1332 69.1642 22.1332C70.031 22.1332 70.6502 22.8114 70.6502 23.6128C70.6502 24.476 69.9691 25.0925 69.1642 25.0925C68.3592 25.0925 67.6781 24.4143 67.6781 23.6128Z" fill="#D62340"/>
<path d="M74.1796 23.6128C74.1796 22.7497 74.8607 22.1332 75.6656 22.1332C76.5325 22.1332 77.1517 22.8114 77.1517 23.6128C77.1517 24.476 76.4706 25.0925 75.6656 25.0925C74.8607 25.0925 74.1796 24.4143 74.1796 23.6128Z" fill="#D62340"/>
<path d="M80.6812 23.6128C80.6812 22.7497 81.3623 22.1332 82.1672 22.1332C83.0341 22.1332 83.6533 22.8114 83.6533 23.6128C83.6533 24.476 82.9722 25.0925 82.1672 25.0925C81.3623 25.0925 80.6812 24.4143 80.6812 23.6128Z" fill="#D62340"/>
<path d="M87.1207 23.6128C87.1207 22.7497 87.8018 22.1332 88.6068 22.1332C89.4737 22.1332 90.0929 22.8114 90.0929 23.6128C90.0929 24.476 89.4118 25.0925 88.6068 25.0925C87.8018 25.0925 87.1207 24.4143 87.1207 23.6128Z" fill="#D62340"/>
<path d="M61.1765 18.0641C61.1765 17.201 61.8576 16.5845 62.6626 16.5845C63.4675 16.5845 64.1486 17.2626 64.1486 18.0641C64.1486 18.9273 63.4675 19.5438 62.6626 19.5438C61.8576 19.5438 61.1765 18.9273 61.1765 18.0641Z" fill="#D62340"/>
<path d="M67.6781 18.0641C67.6781 17.201 68.3592 16.5845 69.1642 16.5845C70.031 16.5845 70.6502 17.2626 70.6502 18.0641C70.6502 18.9273 69.9691 19.5438 69.1642 19.5438C68.3592 19.6054 67.6781 18.9273 67.6781 18.0641Z" fill="#D62340"/>
<path d="M74.1796 18.0641C74.1796 17.201 74.8607 16.5845 75.6656 16.5845C76.5325 16.5845 77.1517 17.2626 77.1517 18.0641C77.1517 18.9273 76.4706 19.5438 75.6656 19.5438C74.8607 19.6054 74.1796 18.9273 74.1796 18.0641Z" fill="#D62340"/>
<path d="M80.6812 18.0641C80.6812 17.201 81.3623 16.5845 82.1672 16.5845C83.0341 16.5845 83.6533 17.2626 83.6533 18.0641C83.6533 18.9273 82.9722 19.5438 82.1672 19.5438C81.3623 19.6054 80.6812 18.9273 80.6812 18.0641Z" fill="#D62340"/>
<path d="M87.1207 18.0641C87.1207 17.201 87.8018 16.5845 88.6068 16.5845C89.4737 16.5845 90.0929 17.2626 90.0929 18.0641C90.0929 18.9273 89.4118 19.5438 88.6068 19.5438C87.8018 19.6054 87.1207 18.9273 87.1207 18.0641Z" fill="#D62340"/>
<path d="M61.1765 12.5771C61.1765 11.7139 61.8576 11.0974 62.6626 11.0974C63.4675 11.0974 64.1486 11.7756 64.1486 12.5771C64.1486 13.4402 63.4675 14.0567 62.6626 14.0567C61.8576 14.0567 61.1765 13.3785 61.1765 12.5771Z" fill="#D62340"/>
<path d="M67.6781 12.5771C67.6781 11.7139 68.3592 11.0974 69.1642 11.0974C70.031 11.0974 70.6502 11.7756 70.6502 12.5771C70.6502 13.4402 69.9691 14.0567 69.1642 14.0567C68.3592 14.0567 67.6781 13.3785 67.6781 12.5771Z" fill="#D62340"/>
<path d="M74.1796 12.5771C74.1796 11.7139 74.8607 11.0974 75.6656 11.0974C76.5325 11.0974 77.1517 11.7756 77.1517 12.5771C77.1517 13.4402 76.4706 14.0567 75.6656 14.0567C74.8607 14.0567 74.1796 13.3785 74.1796 12.5771Z" fill="#D62340"/>
<path d="M80.6812 12.5771C80.6812 11.7139 81.3623 11.0974 82.1672 11.0974C83.0341 11.0974 83.6533 11.7756 83.6533 12.5771C83.6533 13.4402 82.9722 14.0567 82.1672 14.0567C81.3623 14.0567 80.6812 13.3785 80.6812 12.5771Z" fill="#D62340"/>
<path d="M87.1207 12.5771C87.1207 11.7139 87.8018 11.0974 88.6068 11.0974C89.4737 11.0974 90.0929 11.7756 90.0929 12.5771C90.0929 13.4402 89.4118 14.0567 88.6068 14.0567C87.8018 14.0567 87.1207 13.3785 87.1207 12.5771Z" fill="#D62340"/>
<path d="M61.1765 7.02836C61.1765 6.16523 61.8576 5.54871 62.6626 5.54871C63.4675 5.54871 64.1486 6.22688 64.1486 7.02836C64.1486 7.89149 63.4675 8.50802 62.6626 8.50802C61.8576 8.50802 61.1765 7.89149 61.1765 7.02836Z" fill="#D62340"/>
<path d="M67.6781 7.02836C67.6781 6.16523 68.3592 5.54871 69.1642 5.54871C70.031 5.54871 70.6502 6.22688 70.6502 7.02836C70.6502 7.89149 69.9691 8.50802 69.1642 8.50802C68.3592 8.56967 67.6781 7.89149 67.6781 7.02836Z" fill="#D62340"/>
<path d="M74.1796 7.02836C74.1796 6.16523 74.8607 5.54871 75.6656 5.54871C76.5325 5.54871 77.1517 6.22688 77.1517 7.02836C77.1517 7.89149 76.4706 8.50802 75.6656 8.50802C74.8607 8.56967 74.1796 7.89149 74.1796 7.02836Z" fill="#D62340"/>
<path d="M80.6812 7.02836C80.6812 6.16523 81.3623 5.54871 82.1672 5.54871C83.0341 5.54871 83.6533 6.22688 83.6533 7.02836C83.6533 7.89149 82.9722 8.50802 82.1672 8.50802C81.3623 8.56967 80.6812 7.89149 80.6812 7.02836Z" fill="#D62340"/>
<path d="M87.1207 7.02836C87.1207 6.16523 87.8018 5.54871 88.6068 5.54871C89.4737 5.54871 90.0929 6.22688 90.0929 7.02836C90.0929 7.89149 89.4118 8.50802 88.6068 8.50802C87.8018 8.56967 87.1207 7.89149 87.1207 7.02836Z" fill="#D62340"/>
<path d="M61.1765 1.47966C61.1765 0.616523 61.8576 0 62.6626 0C63.4675 0 64.1486 0.678175 64.1486 1.47966C64.1486 2.34279 63.4675 2.95931 62.6626 2.95931C61.8576 2.95931 61.1765 2.34279 61.1765 1.47966Z" fill="#D62340"/>
<path d="M67.6781 1.47966C67.6781 0.616523 68.3592 0 69.1642 0C70.031 0 70.6502 0.678175 70.6502 1.47966C70.6502 2.34279 69.9691 2.95931 69.1642 2.95931C68.3592 3.02096 67.6781 2.34279 67.6781 1.47966Z" fill="#D62340"/>
<path d="M74.1796 1.47966C74.1796 0.616523 74.8607 0 75.6656 0C76.5325 0 77.1517 0.678175 77.1517 1.47966C77.1517 2.34279 76.4706 2.95931 75.6656 2.95931C74.8607 3.02096 74.1796 2.34279 74.1796 1.47966Z" fill="#D62340"/>
<path d="M80.6812 1.47966C80.6812 0.616523 81.3623 0 82.1672 0C83.0341 0 83.6533 0.678175 83.6533 1.47966C83.6533 2.34279 82.9722 2.95931 82.1672 2.95931C81.3623 3.02096 80.6812 2.34279 80.6812 1.47966Z" fill="#D62340"/>
<path d="M87.1207 1.47966C87.1207 0.616523 87.8018 0 88.6068 0C89.4737 0 90.0929 0.678175 90.0929 1.47966C90.0929 2.34279 89.4118 2.95931 88.6068 2.95931C87.8018 3.02096 87.1207 2.34279 87.1207 1.47966Z" fill="#D62340"/>
<path d="M30.774 75.3391L30.774 61.529L16.904 61.529H0C0 78.4217 13.7461 92.1702 30.774 92.1702V75.3391Z" fill="#2E2E2E"/>
<path d="M100.062 44.5746H91.0836V61.4057H100.062V44.5746Z" fill="#D62340"/>
<path d="M47.6781 92.1702H30.774V100H47.6781V92.1702Z" fill="#D62340"/>
</g>
<defs>
<clipPath id="clip0_90_466">
<rect width="100" height="100" fill="white"/>
</clipPath>
</defs>
</svg>
