<svg width="566" height="544" viewBox="0 0 566 544" fill="none" xmlns="http://www.w3.org/2000/svg">
<path d="M507.061 393.746C504.748 390.062 502.349 386.464 500.036 382.781C474.936 343.117 449.835 303.453 424.82 263.789C423.792 262.161 422.936 260.191 422.764 258.306C419.595 222.069 406.573 189.858 382.929 162.273C350.89 124.922 309.941 105.048 260.853 102.734C215.364 100.593 175.358 115.499 141.433 145.397C114.106 169.384 96.8008 199.881 88.7481 235.433C88.6624 235.947 88.4054 236.461 88.2341 237.232C81.8091 223.097 96.0298 157.733 112.135 126.379C130.04 91.5978 154.883 62.6422 187.265 40.7114C240.036 5.15954 298.033 -7.43353 360.656 4.21721C423.021 15.7823 472.28 48.6785 509.203 100.593C527.964 88.7707 546.468 77.12 564.972 65.3836C565.315 65.5549 565.657 65.7263 566 65.9833C546.725 175.209 527.45 284.349 508.26 393.575C507.832 393.66 507.404 393.66 507.061 393.746Z" fill="black" fill-opacity="0.02"/>
<path d="M419.766 306.365C424.135 372.415 391.067 465.021 301.802 514.194C249.716 542.892 194.376 550.431 136.55 536.896C78.8961 523.36 33.3212 491.321 -1.03133 442.833C-19.7068 454.57 -38.2109 466.22 -58 478.728C-38.5536 368.217 -19.2784 259.077 -0.00332642 149.851C0.339344 149.766 0.767681 149.68 1.11035 149.68C3.50903 153.278 5.90771 156.962 8.22073 160.56C33.2355 200.052 58.2504 239.631 83.0938 279.209C84.2932 281.179 85.2355 283.578 85.4068 285.891C88.6622 321.014 101.341 352.283 123.786 379.439C151.542 413.021 187.265 433.067 230.184 439.149C280.214 446.26 325.018 432.896 363.74 400.514C392.781 376.184 410.856 344.83 419.338 307.993C419.509 307.393 419.68 306.879 419.766 306.365Z" fill="black" fill-opacity="0.02"/>
</svg>
