<svg width="419" height="138" viewBox="0 0 419 138" fill="none" xmlns="http://www.w3.org/2000/svg">
<path d="M46.7454 46.1978L93.4908 46.1978L93.4908 -0.447071L46.7454 -0.447071L46.7454 46.1978Z" fill="#2E2E2E"/>
<path d="M326.885 46.1978L373.63 46.1978L373.63 -0.447071L326.885 -0.447071L326.885 46.1978Z" fill="#D62340"/>
<path d="M93.4909 46.1978L140.236 46.1978L140.236 -0.447071L93.4909 -0.447071L93.4909 46.1978Z" fill="#FAFAFA"/>
<path d="M186.815 46.1978L233.561 46.1978L233.561 -0.447071L186.815 -0.447071L186.815 46.1978Z" fill="#D62340"/>
<path d="M233.394 46.1978L280.14 46.1978L280.14 -0.447071L233.394 -0.447071L233.394 46.1978Z" fill="#2E2E2E"/>
<path d="M373.464 46.1978L420.21 46.1978L420.21 -0.447071L373.464 -0.447071L373.464 46.1978Z" fill="#FAFAFA"/>
<path d="M280.14 46.1978L326.885 46.1978L326.885 -0.447071L280.14 -0.447071L280.14 46.1978Z" fill="#2E2E2E"/>
<path d="M140.07 46.1978L186.815 46.1978L186.815 -0.447071L140.07 -0.447071L140.07 46.1978Z" fill="#FAFAFA"/>
<path d="M385.275 46.1978L373.631 34.5781L373.631 46.1978L385.275 46.1978Z" fill="#FAFAFA"/>
<path d="M396.92 46.1978L408.565 46.1978L373.631 11.3387L373.631 22.9584L396.92 46.1978Z" fill="#FAFAFA"/>
<path d="M420.21 46.1978L373.631 -0.447071L385.275 -0.447071L420.21 34.5781L420.21 46.1978Z" fill="#FAFAFA"/>
<path d="M420.209 22.9583L396.92 -0.447094L408.565 -0.447094L420.209 11.3386L420.209 22.9583Z" fill="#FAFAFA"/>
<path d="M280.14 11.3384L291.951 -0.447338L280.14 -0.447338L280.14 11.3384Z" fill="#FAFAFA"/>
<path d="M280.14 22.9584L280.14 34.5781L315.24 -0.44706L303.596 -0.44706L280.14 22.9584Z" fill="#FAFAFA"/>
<path d="M280.14 46.1978L326.885 -0.447071L326.885 11.3386L291.951 46.1978L280.14 46.1978Z" fill="#FAFAFA"/>
<path d="M303.596 46.1978L326.885 22.9584L326.885 34.5781L315.24 46.1978L303.596 46.1978Z" fill="#FAFAFA"/>
<path d="M186.815 22.9583L186.815 -0.281096L210.105 -0.281096C210.271 12.5006 199.791 22.9583 186.815 22.9583Z" fill="#2E2E2E"/>
<path d="M163.526 -0.447094L186.815 -0.447094L186.815 22.9583C174.006 22.9583 163.526 12.5006 163.526 -0.447094Z" fill="#D62340"/>
<path d="M105.136 34.5781L128.425 34.5781L128.425 11.3387L105.136 11.3387L105.136 34.5781Z" fill="#2E2E2E"/>
<path d="M58.5564 34.5781L81.8459 34.5781L81.8459 11.3387L58.5564 11.3387L58.5564 34.5781Z" fill="#FAFAFA"/>
<path d="M92.9999 45.4537L92.9999 92.0985L139.745 92.0985L139.745 45.4537L92.9999 45.4537Z" fill="#FAFAFA"/>
<path d="M139.684 45.3478L139.684 91.9927L186.429 91.9927L186.429 45.3478L139.684 45.3478Z" fill="#FAFAFA"/>
<path d="M186.368 45.4088L186.368 92.0536L233.113 92.0536L233.113 45.4088L186.368 45.4088Z" fill="#2E2E2E"/>
<path d="M174.661 45.5136L186.306 57.1333L186.306 45.5136L174.661 45.5136Z" fill="#D62340"/>
<path d="M163.017 45.5136L151.372 45.5136L186.306 80.3728L186.306 68.7531L163.017 45.5136Z" fill="#D62340"/>
<path d="M139.727 45.5138L186.306 91.9927L174.661 91.9927L139.727 57.1335L139.727 45.5138Z" fill="#D62340"/>
<path d="M139.727 68.7533L163.017 91.9927L151.372 91.9927L139.727 80.373L139.727 68.7533Z" fill="#D62340"/>
<path d="M116.319 45.4504L93.0286 68.6908L116.319 91.9312L139.609 68.6908L116.319 45.4504Z" fill="#2E2E2E"/>
<path d="M233.05 91.9917L209.761 68.7523L233.05 45.5129L233.05 91.9917Z" fill="#FAFAFA"/>
<path d="M420.426 91.9937L420.426 45.3488L373.681 45.3488L373.681 91.9937L420.426 91.9937Z" fill="#2E2E2E"/>
<path d="M373.742 92.0541L373.742 45.4092L326.997 45.4092L326.997 92.0541L373.742 92.0541Z" fill="#2E2E2E"/>
<path d="M420.532 91.917L420.532 45.2721L373.787 45.2721C373.787 71.1675 394.747 91.917 420.532 91.917Z" fill="#FAFAFA"/>
<path d="M420.531 80.2975L420.531 45.4383L385.598 45.4383C385.431 64.6939 401.068 80.2975 420.531 80.2975Z" fill="#2E2E2E"/>
<path d="M373.787 45.4381L350.498 68.6776L373.787 91.917L373.787 45.4381Z" fill="#FAFAFA"/>
<path d="M280.428 92.0987L280.428 45.4538L233.683 45.4538L233.683 92.0987L280.428 92.0987Z" fill="#D62340"/>
<path d="M327.112 92.038L327.112 45.3931L280.367 45.3931L280.367 92.038L327.112 92.038Z" fill="#2E2E2E"/>
<path d="M303.778 56.9973C297.347 56.9973 292.133 62.1997 292.133 68.6171C292.133 75.0345 297.347 80.2368 303.778 80.2368C310.209 80.2368 315.422 75.0345 315.422 68.6171C315.422 62.1997 310.209 56.9973 303.778 56.9973Z" fill="#FAFAFA"/>
<path d="M257.033 80.403C250.545 80.403 245.388 75.2571 245.388 68.7832C245.388 62.3094 250.545 57.1635 257.033 57.1635C263.521 57.1635 268.677 62.3094 268.677 68.7832C268.677 75.0911 263.521 80.403 257.033 80.403Z" fill="#FAFAFA"/>
<path d="M326 91.3545L326 137.999L372.745 137.999L372.745 91.3545L326 91.3545Z" fill="#FAFAFA"/>
<path d="M372.684 91.2487L372.684 137.894L419.429 137.894L419.429 91.2487L372.684 91.2487Z" fill="#FAFAFA"/>
<path d="M407.661 91.4144L419.306 103.034L419.306 91.4144L407.661 91.4144Z" fill="#D62340"/>
<path d="M396.017 91.4145L384.372 91.4145L419.306 126.274L419.306 114.654L396.017 91.4145Z" fill="#D62340"/>
<path d="M372.727 91.4147L419.306 137.894L407.661 137.894L372.727 103.034L372.727 91.4147Z" fill="#D62340"/>
<path d="M372.727 114.654L396.016 137.894L384.372 137.894L372.727 126.274L372.727 114.654Z" fill="#D62340"/>
<path d="M349.318 91.3514L326.028 114.592L349.318 137.832L372.609 114.592L349.318 91.3514Z" fill="#2E2E2E"/>
</svg>
