<svg width="465" height="137" viewBox="0 0 465 137" fill="none" xmlns="http://www.w3.org/2000/svg">
<g clip-path="url(#clip0_1260_1501)">
<path d="M465.11 91.8021L418.365 91.8021L418.365 138.447L465.11 138.447L465.11 91.8021Z" fill="#2E2E2E"/>
<path d="M418.365 91.8021L371.619 91.8021L371.619 138.447L418.365 138.447L418.365 91.8021Z" fill="#2E2E2E"/>
<path d="M138.225 91.8022L91.4792 91.8022L91.4793 138.447L138.225 138.447L138.225 91.8022Z" fill="#D62340"/>
<path d="M371.619 91.8022L324.874 91.8022L324.874 138.447L371.619 138.447L371.619 91.8022Z" fill="#FAFAFA"/>
<path d="M44.9 91.8022L-1.84546 91.8022L-1.84545 138.447L44.9 138.447L44.9 91.8022Z" fill="#2E2E2E"/>
<path d="M278.295 91.8022L231.549 91.8022L231.549 138.447L278.295 138.447L278.295 91.8022Z" fill="#D62340"/>
<path d="M231.716 91.8022L184.97 91.8022L184.97 138.447L231.716 138.447L231.716 91.8022Z" fill="#2E2E2E"/>
<path d="M91.6456 91.8022L44.9001 91.8022L44.9002 138.447L91.6456 138.447L91.6456 91.8022Z" fill="#FAFAFA"/>
<path d="M184.97 91.8022L138.225 91.8022L138.225 138.447L184.97 138.447L184.97 91.8022Z" fill="#2E2E2E"/>
<path d="M325.04 91.8022L278.295 91.8022L278.295 138.447L325.04 138.447L325.04 91.8022Z" fill="#FAFAFA"/>
<path d="M21.4712 103.528L9.82593 91.9081L-1.81932 103.528L9.82593 115.149L21.4712 103.528Z" fill="#FAFAFA"/>
<path d="M44.7759 103.491L33.1306 91.8704L21.4854 103.491L33.1306 115.111L44.7759 103.491Z" fill="#FAFAFA"/>
<path d="M21.5088 126.783L9.86353 115.163L-1.78172 126.783L9.86353 138.403L21.5088 126.783Z" fill="#FAFAFA"/>
<path d="M44.8135 126.746L33.1682 115.125L21.523 126.746L33.1682 138.366L44.8135 126.746Z" fill="#FAFAFA"/>
<path d="M79.8345 91.8022L91.4792 103.422L91.4792 91.8022L79.8345 91.8022Z" fill="#FAFAFA"/>
<path d="M68.1899 91.8022L56.5452 91.8022L91.4795 126.661L91.4795 115.042L68.1899 91.8022Z" fill="#FAFAFA"/>
<path d="M44.9001 91.8022L91.4792 138.447L79.8344 138.447L44.9001 103.422L44.9001 91.8022Z" fill="#FAFAFA"/>
<path d="M44.9004 115.042L68.1899 138.447L56.5452 138.447L44.9004 126.661L44.9004 115.042Z" fill="#FAFAFA"/>
<path d="M184.97 126.662L173.159 138.447L184.97 138.447L184.97 126.662Z" fill="#FAFAFA"/>
<path d="M184.97 115.042L184.97 103.422L149.87 138.447L161.514 138.447L184.97 115.042Z" fill="#FAFAFA"/>
<path d="M184.97 91.8022L138.225 138.447L138.225 126.661L173.159 91.8022L184.97 91.8022Z" fill="#FAFAFA"/>
<path d="M161.514 91.8022L138.225 115.042L138.225 103.422L149.869 91.8022L161.514 91.8022Z" fill="#FAFAFA"/>
<path d="M278.295 115.042L278.295 138.281L255.005 138.281C254.839 125.499 265.319 115.042 278.295 115.042Z" fill="#2E2E2E"/>
<path d="M301.584 138.447L278.295 138.447L278.295 115.042C291.104 115.042 301.584 125.499 301.584 138.447Z" fill="#D62340"/>
<path d="M359.974 103.422L336.685 103.422L336.685 126.661L359.974 126.661L359.974 103.422Z" fill="#2E2E2E"/>
<path d="M406.553 103.422L383.264 103.422L383.264 126.661L406.553 126.661L406.553 103.422Z" fill="#FAFAFA"/>
<path d="M464.981 115.05L441.69 91.8092L418.4 115.05L441.69 138.29L464.981 115.05Z" fill="#FAFAFA"/>
<path d="M453.218 115.05L441.573 103.429L429.927 115.05L441.573 126.67L453.218 115.05Z" fill="#FAFAFA"/>
<path d="M372.11 92.5461L372.11 45.9012L325.365 45.9012L325.365 92.5461L372.11 92.5461Z" fill="#FAFAFA"/>
<path d="M325.426 92.6522L325.426 46.0073L278.681 46.0073L278.681 92.6522L325.426 92.6522Z" fill="#FAFAFA"/>
<path d="M278.742 92.5913L278.742 45.9465L231.997 45.9465L231.997 92.5913L278.742 92.5913Z" fill="#2E2E2E"/>
<path d="M290.449 92.4865L278.804 80.8668L278.804 92.4865L290.449 92.4865Z" fill="#D62340"/>
<path d="M302.093 92.4865L313.738 92.4865L278.804 57.6273L278.804 69.247L302.093 92.4865Z" fill="#D62340"/>
<path d="M325.383 92.4862L278.804 46.0073L290.449 46.0073L325.383 80.8665L325.383 92.4862Z" fill="#D62340"/>
<path d="M325.383 69.2468L302.094 46.0073L313.738 46.0073L325.383 57.627L325.383 69.2468Z" fill="#D62340"/>
<path d="M348.791 92.5495L372.082 69.3091L348.791 46.0687L325.501 69.3091L348.791 92.5495Z" fill="#2E2E2E"/>
<path d="M232.06 46.0083L255.349 69.2477L232.06 92.4872L232.06 46.0083Z" fill="#FAFAFA"/>
<path d="M-2 45.9013L-2 92.5462L44.7448 92.5462L44.7448 45.9013L-2 45.9013Z" fill="#D62340"/>
<path d="M44.6841 46.0064L44.6841 92.6512L91.4289 92.6512L91.4288 46.0064L44.6841 46.0064Z" fill="#2E2E2E"/>
<path d="M91.3682 45.9459L91.3682 92.5908L138.113 92.5908L138.113 45.9459L91.3682 45.9459Z" fill="#2E2E2E"/>
<path d="M44.5784 46.0831L44.5784 92.728L91.3231 92.728C91.3231 66.8326 70.3628 46.0831 44.5784 46.0831Z" fill="#FAFAFA"/>
<path d="M44.5784 57.7026L44.5784 92.5618L79.5122 92.5618C79.6785 73.3063 64.0415 57.7026 44.5784 57.7026Z" fill="#2E2E2E"/>
<path d="M21.2916 46.0739L-1.99854 69.3143L21.2916 92.5547L44.5818 69.3143L21.2916 46.0739Z" fill="#FAFAFA"/>
<path d="M91.323 92.5619L114.612 69.3225L91.323 46.0831L91.323 92.5619Z" fill="#FAFAFA"/>
<path d="M184.682 45.9013L184.682 92.5462L231.427 92.5462L231.427 45.9013L184.682 45.9013Z" fill="#D62340"/>
<path d="M137.998 45.962L137.998 92.6069L184.743 92.6069L184.743 45.962L137.998 45.962Z" fill="#2E2E2E"/>
<path d="M161.332 81.0027C167.763 81.0027 172.977 75.8004 172.977 69.383C172.977 62.9656 167.763 57.7632 161.332 57.7632C154.901 57.7632 149.688 62.9656 149.688 69.383C149.688 75.8004 154.901 81.0027 161.332 81.0027Z" fill="#FAFAFA"/>
<path d="M208.077 57.5971C214.565 57.5971 219.722 62.743 219.722 69.2168C219.722 75.6907 214.565 80.8365 208.077 80.8365C201.589 80.8365 196.432 75.6907 196.432 69.2168C196.432 62.909 201.589 57.5971 208.077 57.5971Z" fill="#FAFAFA"/>
<path d="M139.11 46.6453L139.11 0.000366211L92.3653 0.000370289L92.3653 46.6453L139.11 46.6453Z" fill="#FAFAFA"/>
<path d="M92.426 46.7511L92.426 0.106201L45.6813 0.106205L45.6813 46.7511L92.426 46.7511Z" fill="#FAFAFA"/>
<path d="M45.7417 46.6902L45.7417 0.0453491L-1.00307 0.0453532L-1.00307 46.6902L45.7417 46.6902Z" fill="#2E2E2E"/>
<path d="M57.4488 46.5854L45.8042 34.9657L45.8042 46.5854L57.4488 46.5854Z" fill="#D62340"/>
<path d="M69.0934 46.5854L80.738 46.5854L45.8042 11.7262L45.8042 23.3459L69.0934 46.5854Z" fill="#D62340"/>
<path d="M92.3826 46.5851L45.8042 0.106201L57.4488 0.1062L92.3826 34.9654L92.3826 46.5851Z" fill="#D62340"/>
<path d="M92.3827 23.3456L69.0935 0.106201L80.7381 0.1062L92.3827 11.7259L92.3827 23.3456Z" fill="#D62340"/>
<path d="M115.791 46.6484L139.082 23.408L115.791 0.167616L92.5012 23.408L115.791 46.6484Z" fill="#2E2E2E"/>
<path d="M-0.939941 0.107178L22.3493 23.3466L-0.939937 46.5861L-0.939941 0.107178Z" fill="#FAFAFA"/>
</g>
<defs>
<clipPath id="clip0_1260_1501">
<rect width="465" height="137" fill="white"/>
</clipPath>
</defs>
</svg>
