<svg width="510" height="342" viewBox="0 0 510 342" fill="none" xmlns="http://www.w3.org/2000/svg">
<path d="M587.508 409.388C585.103 405.557 582.609 401.817 580.204 397.987C554.107 356.747 528.009 315.507 502 274.268C500.932 272.576 500.041 270.527 499.863 268.567C496.567 230.891 483.029 197.4 458.445 168.719C425.133 129.885 382.557 109.221 331.52 106.816C284.224 104.589 242.628 120.087 207.356 151.173C178.942 176.112 160.95 207.821 152.578 244.786C152.489 245.32 152.221 245.854 152.043 246.656C145.363 231.959 160.149 163.999 176.894 131.399C195.509 95.2365 221.34 65.1307 255.008 42.3287C309.876 5.36451 370.176 -7.72883 435.287 4.38473C500.13 16.4092 551.345 50.6122 589.735 104.589C609.241 92.2972 628.48 80.1836 647.72 67.981C648.076 68.1591 648.432 68.3372 648.788 68.6044C628.748 182.169 608.707 295.645 588.755 409.209C588.31 409.298 587.864 409.298 587.508 409.388Z" fill="black" fill-opacity="0.03"/>
<path d="M496.745 318.536C501.288 387.209 466.907 483.494 374.095 534.62C319.941 564.459 262.401 572.297 202.279 558.224C142.334 544.151 94.9489 510.838 59.2318 460.425C39.8144 472.627 20.5752 484.741 0 497.745C20.219 382.844 40.2598 269.369 60.3006 155.804C60.6569 155.715 61.1022 155.626 61.4585 155.626C63.9525 159.367 66.4464 163.197 68.8513 166.938C94.8599 207.999 120.868 249.15 146.699 290.3C147.946 292.349 148.926 294.843 149.104 297.248C152.488 333.767 165.671 366.277 189.007 394.513C217.866 429.428 255.008 450.271 299.632 456.595C351.65 463.987 398.233 450.092 438.493 416.424C468.688 391.128 487.482 358.528 496.3 320.228C496.478 319.604 496.656 319.07 496.745 318.536Z" fill="black" fill-opacity="0.03"/>
<path d="M464.502 282.908C464.324 360.399 401.707 422.659 323.949 422.481C246.458 422.303 184.198 359.597 184.376 281.928C184.554 204.08 247.17 142.266 325.819 142.355C402.42 142.622 464.68 205.595 464.502 282.908ZM259.373 278.9C259.729 278.721 260.175 278.454 260.531 278.276C281.641 297.961 302.75 317.556 324.483 337.686C324.662 335.637 324.751 334.658 324.751 333.678C324.751 299.564 324.751 265.361 324.751 231.247C324.751 230.534 324.929 229.555 324.662 229.02C324.038 228.04 323.147 226.704 322.346 226.615C316.022 226.437 309.698 226.526 302.572 226.526C302.572 246.567 302.572 266.162 302.572 285.758C302.216 285.847 301.77 286.025 301.414 286.114C280.394 266.608 259.284 247.101 237.907 227.239C237.907 264.826 237.907 301.434 237.907 338.042C245.211 338.042 252.069 338.042 259.551 338.042C259.373 318.18 259.373 298.495 259.373 278.9ZM338.2 226.615C338.2 264.203 338.2 301.078 338.2 338.399C345.504 338.399 352.451 338.399 359.399 338.399C375.432 338.399 391.464 338.488 407.497 338.309C408.833 338.309 411.327 337.062 411.416 336.261C411.772 329.848 411.594 323.346 411.594 316.844C410.08 316.754 409.189 316.576 408.299 316.576C393.869 316.576 379.529 316.398 365.099 316.576C361.18 316.665 359.577 315.775 359.755 311.499C360.112 302.77 359.844 293.952 359.844 285.224C359.844 267.142 359.933 249.061 359.755 230.891C359.755 229.466 358.419 226.793 357.528 226.704C351.204 226.437 344.791 226.615 338.2 226.615Z" fill="black" fill-opacity="0.03"/>
</svg>
