<svg width="422" height="139" viewBox="0 0 422 139" fill="none" xmlns="http://www.w3.org/2000/svg">
<path d="M421.11 46.9005L374.365 46.9005L374.365 0.15517L421.11 0.155175L421.11 46.9005Z" fill="#2E2E2E"/>
<path d="M374.365 46.9005L327.619 46.9005L327.619 0.15517L374.365 0.155175L374.365 46.9005Z" fill="#2E2E2E"/>
<path d="M94.2249 46.9005L47.4795 46.9005L47.4795 0.155155L94.2249 0.155159L94.2249 46.9005Z" fill="#D62340"/>
<path d="M327.619 46.9005L280.874 46.9005L280.874 0.15517L327.619 0.155175L327.619 46.9005Z" fill="#FAFAFA"/>
<path d="M234.295 46.9005L187.549 46.9005L187.549 0.155155L234.295 0.155159L234.295 46.9005Z" fill="#D62340"/>
<path d="M187.716 46.9005L140.97 46.9005L140.97 0.155155L187.716 0.155159L187.716 46.9005Z" fill="#2E2E2E"/>
<path d="M47.6457 46.9005L0.900269 46.9005L0.900273 0.15514L47.6457 0.155144L47.6457 46.9005Z" fill="#FAFAFA"/>
<path d="M140.97 46.9005L94.2249 46.9005L94.2249 0.155155L140.97 0.155159L140.97 46.9005Z" fill="#2E2E2E"/>
<path d="M281.04 46.9005L234.295 46.9005L234.295 0.15517L281.04 0.155175L281.04 46.9005Z" fill="#FAFAFA"/>
<path d="M35.8346 46.9005L47.4794 35.2558L47.4794 46.9005L35.8346 46.9005Z" fill="#FAFAFA"/>
<path d="M24.1899 46.9005L12.5452 46.9005L47.4795 11.9663L47.4795 23.611L24.1899 46.9005Z" fill="#FAFAFA"/>
<path d="M0.900269 46.9005L47.4793 0.155142L35.8346 0.155141L0.90027 35.2558L0.900269 46.9005Z" fill="#FAFAFA"/>
<path d="M0.900391 23.611L24.1899 0.155103L12.5452 0.155102L0.900392 11.9662L0.900391 23.611Z" fill="#FAFAFA"/>
<path d="M140.97 11.966L129.159 0.154851L140.97 0.154852L140.97 11.966Z" fill="#FAFAFA"/>
<path d="M140.97 23.611L140.97 35.2558L105.87 0.155143L117.514 0.155144L140.97 23.611Z" fill="#FAFAFA"/>
<path d="M140.97 46.9005L94.2249 0.155154L94.2249 11.9663L129.159 46.9005L140.97 46.9005Z" fill="#FAFAFA"/>
<path d="M117.514 46.9005L94.2249 23.611L94.2249 35.2558L105.87 46.9005L117.514 46.9005Z" fill="#FAFAFA"/>
<path d="M234.295 23.611L234.295 0.321474L211.005 0.321472C210.839 13.1307 221.319 23.611 234.295 23.611Z" fill="#2E2E2E"/>
<path d="M257.584 0.155134L234.295 0.155132L234.295 23.611C247.104 23.611 257.584 13.1307 257.584 0.155134Z" fill="#D62340"/>
<path d="M315.974 35.2558L292.685 35.2558L292.685 11.9663L315.974 11.9663L315.974 35.2558Z" fill="#2E2E2E"/>
<path d="M362.553 35.2558L339.264 35.2558L339.264 11.9663L362.553 11.9663L362.553 35.2558Z" fill="#FAFAFA"/>
<path d="M420.981 23.603L397.69 46.8935L374.4 23.603L397.69 0.312555L420.981 23.603Z" fill="#FAFAFA"/>
<path d="M409.218 23.603L397.573 35.2482L385.927 23.603L397.573 11.9578L409.218 23.603Z" fill="#FAFAFA"/>
<path d="M328.11 46.1547L328.11 92.9001L281.365 92.9001L281.365 46.1547L328.11 46.1547Z" fill="#FAFAFA"/>
<path d="M281.426 46.0487L281.426 92.7941L234.681 92.7941L234.681 46.0487L281.426 46.0487Z" fill="#FAFAFA"/>
<path d="M234.742 46.1098L234.742 92.8551L187.997 92.8551L187.997 46.1098L234.742 46.1098Z" fill="#2E2E2E"/>
<path d="M246.449 46.2148L234.804 57.8595L234.804 46.2148L246.449 46.2148Z" fill="#D62340"/>
<path d="M258.093 46.2148L269.738 46.2148L234.804 81.1491L234.804 69.5043L258.093 46.2148Z" fill="#D62340"/>
<path d="M281.382 46.2151L234.804 92.7941L246.449 92.7941L281.382 57.8598L281.382 46.2151Z" fill="#D62340"/>
<path d="M281.382 69.5046L258.093 92.7941L269.738 92.7941L281.382 81.1493L281.382 69.5046Z" fill="#D62340"/>
<path d="M304.791 46.1516L328.081 69.442L304.791 92.7325L281.501 69.4421L304.791 46.1516Z" fill="#2E2E2E"/>
<path d="M188.06 92.7931L211.349 69.5036L188.06 46.2141L188.06 92.7931Z" fill="#FAFAFA"/>
<path d="M0.683956 92.795L0.68396 46.0497L47.4287 46.0497L47.4287 92.795L0.683956 92.795Z" fill="#2E2E2E"/>
<path d="M47.3682 92.8556L47.3682 46.1102L94.1129 46.1102L94.1129 92.8556L47.3682 92.8556Z" fill="#2E2E2E"/>
<path d="M0.578125 92.7181L0.578129 45.9728L47.3229 45.9728C47.3229 71.9239 26.3626 92.7181 0.578125 92.7181Z" fill="#FAFAFA"/>
<path d="M0.578247 81.0736L0.57825 46.1393L35.5121 46.1393C35.6784 65.4364 20.0414 81.0736 0.578247 81.0736Z" fill="#2E2E2E"/>
<path d="M47.3229 46.1391L70.6121 69.4286L47.3229 92.7181L47.3229 46.1391Z" fill="#FAFAFA"/>
<path d="M140.682 92.9003L140.682 46.1549L187.427 46.1549L187.427 92.9003L140.682 92.9003Z" fill="#D62340"/>
<path d="M93.9979 92.8395L93.9979 46.0941L140.743 46.0941L140.743 92.8395L93.9979 92.8395Z" fill="#2E2E2E"/>
<path d="M117.332 57.7233C123.763 57.7233 128.977 62.9369 128.977 69.3681C128.977 75.7993 123.763 81.0128 117.332 81.0128C110.901 81.0128 105.688 75.7993 105.688 69.3681C105.688 62.9369 110.901 57.7233 117.332 57.7233Z" fill="#FAFAFA"/>
<path d="M164.077 81.1793C170.565 81.1793 175.721 76.0224 175.721 69.5346C175.721 63.0468 170.565 57.8898 164.077 57.8898C157.589 57.8898 152.432 63.0468 152.432 69.5346C152.432 75.856 157.589 81.1793 164.077 81.1793Z" fill="#FAFAFA"/>
<path d="M95.11 92.1546L95.11 138.9L48.3652 138.9L48.3652 92.1546L95.11 92.1546Z" fill="#FAFAFA"/>
<path d="M48.4259 92.0487L48.4259 138.794L1.68113 138.794L1.68113 92.0487L48.4259 92.0487Z" fill="#FAFAFA"/>
<path d="M13.4487 92.2147L1.80408 103.859L1.80408 92.2147L13.4487 92.2147Z" fill="#D62340"/>
<path d="M25.0933 92.2148L36.7379 92.2148L1.80408 127.149L1.80408 115.504L25.0933 92.2148Z" fill="#D62340"/>
<path d="M48.3825 92.215L1.80408 138.794L13.4487 138.794L48.3825 103.86L48.3825 92.215Z" fill="#D62340"/>
<path d="M48.3826 115.505L25.0934 138.794L36.738 138.794L48.3826 127.149L48.3826 115.505Z" fill="#D62340"/>
<path d="M71.7913 92.1515L95.0814 115.442L71.7912 138.732L48.5011 115.442L71.7913 92.1515Z" fill="#2E2E2E"/>
</svg>
