<svg width="422" height="232" viewBox="0 0 422 232" fill="none" xmlns="http://www.w3.org/2000/svg">
<path d="M0.745358 92L47.4908 92L47.4908 138.745L0.745349 138.745L0.745358 92Z" fill="#2E2E2E"/>
<path d="M280.885 92L327.63 92L327.63 138.745L280.885 138.745L280.885 92Z" fill="#D62340"/>
<path d="M47.4908 92L94.2363 92L94.2363 138.745L47.4908 138.745L47.4908 92Z" fill="#FAFAFA"/>
<path d="M374.21 92L420.955 92L420.955 138.745L374.21 138.745L374.21 92Z" fill="#2E2E2E"/>
<path d="M140.815 92L187.561 92L187.561 138.745L140.815 138.745L140.815 92Z" fill="#D62340"/>
<path d="M187.394 92L234.14 92L234.14 138.745L187.394 138.745L187.394 92Z" fill="#2E2E2E"/>
<path d="M327.464 92L374.21 92L374.21 138.745L327.464 138.745L327.464 92Z" fill="#FAFAFA"/>
<path d="M234.14 92L280.885 92L280.885 138.745L234.14 138.745L234.14 92Z" fill="#2E2E2E"/>
<path d="M94.0697 92L140.815 92L140.815 138.745L94.0697 138.745L94.0697 92Z" fill="#FAFAFA"/>
<path d="M397.639 103.751L409.284 92.1062L420.929 103.751L409.284 115.397L397.639 103.751Z" fill="#FAFAFA"/>
<path d="M374.334 103.714L385.979 92.0684L397.625 103.714L385.979 115.359L374.334 103.714Z" fill="#FAFAFA"/>
<path d="M397.601 127.056L409.246 115.411L420.891 127.056L409.246 138.701L397.601 127.056Z" fill="#FAFAFA"/>
<path d="M374.296 127.019L385.941 115.374L397.587 127.019L385.941 138.664L374.296 127.019Z" fill="#FAFAFA"/>
<path d="M339.275 92L327.631 103.645L327.631 92L339.275 92Z" fill="#FAFAFA"/>
<path d="M350.92 92L362.565 92L327.63 126.934L327.63 115.29L350.92 92Z" fill="#FAFAFA"/>
<path d="M374.21 92L327.631 138.745L339.275 138.745L374.21 103.645L374.21 92Z" fill="#FAFAFA"/>
<path d="M374.209 115.29L350.92 138.745L362.565 138.745L374.209 126.934L374.209 115.29Z" fill="#FAFAFA"/>
<path d="M234.14 126.935L245.951 138.746L234.14 138.746L234.14 126.935Z" fill="#FAFAFA"/>
<path d="M234.14 115.29L234.14 103.645L269.24 138.745L257.596 138.745L234.14 115.29Z" fill="#FAFAFA"/>
<path d="M234.14 92L280.885 138.745L280.885 126.934L245.951 92L234.14 92Z" fill="#FAFAFA"/>
<path d="M257.596 92L280.885 115.29L280.885 103.645L269.24 92L257.596 92Z" fill="#FAFAFA"/>
<path d="M140.815 115.29L140.815 138.579L164.105 138.579C164.271 125.77 153.791 115.29 140.815 115.29Z" fill="#2E2E2E"/>
<path d="M117.526 138.745L140.815 138.745L140.815 115.29C128.006 115.29 117.526 125.77 117.526 138.745Z" fill="#D62340"/>
<path d="M59.1355 103.645L82.4251 103.645L82.4251 126.934L59.1355 126.934L59.1355 103.645Z" fill="#2E2E2E"/>
<path d="M12.5565 103.645L35.8461 103.645L35.8461 126.934L12.5565 126.934L12.5565 103.645Z" fill="#FAFAFA"/>
<path d="M46.9999 92.7458L47 46.0005L93.7447 46.0005L93.7447 92.7458L46.9999 92.7458Z" fill="#FAFAFA"/>
<path d="M93.6841 92.8518L93.6841 46.1064L140.429 46.1064L140.429 92.8518L93.6841 92.8518Z" fill="#FAFAFA"/>
<path d="M140.368 92.7908L140.368 46.0454L187.113 46.0454L187.113 92.7908L140.368 92.7908Z" fill="#2E2E2E"/>
<path d="M128.661 92.6858L140.306 81.041L140.306 92.6858L128.661 92.6858Z" fill="#D62340"/>
<path d="M117.017 92.6857L105.372 92.6857L140.306 57.7515L140.306 69.3962L117.017 92.6857Z" fill="#D62340"/>
<path d="M93.7275 92.6854L140.306 46.1064L128.661 46.1064L93.7275 81.0407L93.7275 92.6854Z" fill="#D62340"/>
<path d="M93.7274 69.3959L117.017 46.1064L105.372 46.1064L93.7274 57.7512L93.7274 69.3959Z" fill="#D62340"/>
<path d="M70.3187 92.7489L47.0285 69.4585L70.3187 46.168L93.6088 69.4585L70.3187 92.7489Z" fill="#2E2E2E"/>
<path d="M187.05 46.1074L163.761 69.3969L187.05 92.6864L187.05 46.1074Z" fill="#FAFAFA"/>
<path d="M421.11 46.0002L421.11 92.7456L374.365 92.7456L374.365 46.0002L421.11 46.0002Z" fill="#D62340"/>
<path d="M374.426 46.1055L374.426 92.8509L327.681 92.8509L327.681 46.1055L374.426 46.1055Z" fill="#2E2E2E"/>
<path d="M327.742 46.0449L327.742 92.7903L280.997 92.7903L280.997 46.0449L327.742 46.0449Z" fill="#2E2E2E"/>
<path d="M374.532 46.1824L374.532 92.9278L327.787 92.9278C327.787 66.9766 348.747 46.1824 374.532 46.1824Z" fill="#FAFAFA"/>
<path d="M374.532 57.8269L374.532 92.7612L339.598 92.7612C339.431 73.4642 355.068 57.8269 374.532 57.8269Z" fill="#2E2E2E"/>
<path d="M397.818 46.1732L421.109 69.4637L397.818 92.7541L374.528 69.4636L397.818 46.1732Z" fill="#FAFAFA"/>
<path d="M327.787 92.7614L304.498 69.4719L327.787 46.1824L327.787 92.7614Z" fill="#FAFAFA"/>
<path d="M234.428 46.0002L234.428 92.7456L187.683 92.7456L187.683 46.0002L234.428 46.0002Z" fill="#D62340"/>
<path d="M281.112 46.061L281.112 92.8064L234.367 92.8064L234.367 46.061L281.112 46.061Z" fill="#2E2E2E"/>
<path d="M257.778 81.1772C251.347 81.1772 246.133 75.9637 246.133 69.5324C246.133 63.1012 251.347 57.8877 257.778 57.8877C264.209 57.8877 269.422 63.1012 269.422 69.5324C269.422 75.9637 264.209 81.1772 257.778 81.1772Z" fill="#FAFAFA"/>
<path d="M211.033 57.7212C204.545 57.7212 199.388 62.8781 199.388 69.3659C199.388 75.8537 204.545 81.0107 211.033 81.0107C217.521 81.0107 222.678 75.8537 222.678 69.3659C222.678 63.0445 217.521 57.7212 211.033 57.7212Z" fill="#FAFAFA"/>
<path d="M280 46.7459L280 0.000549316L326.745 0.00055749L326.745 46.7459L280 46.7459Z" fill="#FAFAFA"/>
<path d="M326.684 46.8519L326.684 0.106506L373.429 0.106515L373.429 46.8519L326.684 46.8519Z" fill="#FAFAFA"/>
<path d="M373.368 46.7909L373.368 0.0455017L420.113 0.0455099L420.113 46.7909L373.368 46.7909Z" fill="#2E2E2E"/>
<path d="M361.661 46.6859L373.306 35.0411L373.306 46.6859L361.661 46.6859Z" fill="#D62340"/>
<path d="M350.017 46.6858L338.372 46.6858L373.306 11.7516L373.306 23.3963L350.017 46.6858Z" fill="#D62340"/>
<path d="M326.727 46.6855L373.306 0.106537L361.661 0.106535L326.727 35.0408L326.727 46.6855Z" fill="#D62340"/>
<path d="M326.727 23.396L350.017 0.106537L338.372 0.106535L326.727 11.7513L326.727 23.396Z" fill="#D62340"/>
<path d="M303.319 46.749L280.028 23.4586L303.319 0.168089L326.609 23.4585L303.319 46.749Z" fill="#2E2E2E"/>
<path d="M420.05 0.107513L396.761 23.397L420.05 46.6865L420.05 0.107513Z" fill="#FAFAFA"/>
<path d="M92.9998 138.182L92.9998 184.927L139.745 184.927L139.745 138.182L92.9998 138.182Z" fill="#FAFAFA"/>
<path d="M139.684 138.076L139.684 184.821L186.429 184.821L186.429 138.076L139.684 138.076Z" fill="#FAFAFA"/>
<path d="M186.368 138.137L186.368 184.882L233.113 184.882L233.113 138.137L186.368 138.137Z" fill="#2E2E2E"/>
<path d="M174.661 138.242L186.306 149.887L186.306 138.242L174.661 138.242Z" fill="#D62340"/>
<path d="M163.016 138.242L151.372 138.242L186.306 173.176L186.306 161.532L163.016 138.242Z" fill="#D62340"/>
<path d="M139.727 138.242L186.306 184.821L174.661 184.821L139.727 149.887L139.727 138.242Z" fill="#D62340"/>
<path d="M139.727 161.532L163.016 184.821L151.372 184.821L139.727 173.177L139.727 161.532Z" fill="#D62340"/>
<path d="M116.319 138.179L93.0285 161.469L116.319 184.76L139.609 161.469L116.319 138.179Z" fill="#2E2E2E"/>
<path d="M233.05 184.82L209.761 161.531L233.05 138.241L233.05 184.82Z" fill="#FAFAFA"/>
<path d="M420.426 184.822L420.426 138.077L373.681 138.077L373.681 184.822L420.426 184.822Z" fill="#2E2E2E"/>
<path d="M373.742 184.883L373.742 138.137L326.997 138.137L326.997 184.883L373.742 184.883Z" fill="#2E2E2E"/>
<path d="M420.532 184.745L420.532 138L373.787 138C373.787 163.951 394.747 184.745 420.532 184.745Z" fill="#FAFAFA"/>
<path d="M420.532 173.101L420.532 138.167L385.598 138.167C385.431 157.464 401.068 173.101 420.532 173.101Z" fill="#2E2E2E"/>
<path d="M373.787 138.166L350.498 161.456L373.787 184.745L373.787 138.166Z" fill="#FAFAFA"/>
<path d="M280.428 184.928L280.428 138.182L233.683 138.182L233.683 184.928L280.428 184.928Z" fill="#D62340"/>
<path d="M327.112 184.867L327.112 138.122L280.367 138.122L280.367 184.867L327.112 184.867Z" fill="#2E2E2E"/>
<path d="M303.778 149.751C297.347 149.751 292.133 154.964 292.133 161.396C292.133 167.827 297.347 173.04 303.778 173.04C310.209 173.04 315.422 167.827 315.422 161.396C315.422 154.964 310.209 149.751 303.778 149.751Z" fill="#FAFAFA"/>
<path d="M257.033 173.207C250.545 173.207 245.389 168.05 245.389 161.562C245.389 155.074 250.545 149.917 257.033 149.917C263.521 149.917 268.678 155.074 268.678 161.562C268.678 167.883 263.521 173.207 257.033 173.207Z" fill="#FAFAFA"/>
<path d="M281 185.106L281 231.851L327.745 231.851L327.745 185.106L281 185.106Z" fill="#FAFAFA"/>
<path d="M327.684 185L327.684 231.745L374.429 231.745L374.429 185L327.684 185Z" fill="#FAFAFA"/>
<path d="M374.368 185.061L374.368 231.806L421.113 231.806L421.113 185.061L374.368 185.061Z" fill="#2E2E2E"/>
<path d="M362.661 185.166L374.306 196.811L374.306 185.166L362.661 185.166Z" fill="#D62340"/>
<path d="M351.017 185.166L339.372 185.166L374.306 220.1L374.306 208.456L351.017 185.166Z" fill="#D62340"/>
<path d="M327.727 185.166L374.306 231.745L362.661 231.745L327.727 196.811L327.727 185.166Z" fill="#D62340"/>
<path d="M327.727 208.456L351.016 231.745L339.372 231.745L327.727 220.101L327.727 208.456Z" fill="#D62340"/>
<path d="M304.318 185.103L281.028 208.393L304.319 231.684L327.609 208.393L304.318 185.103Z" fill="#2E2E2E"/>
<path d="M421.05 231.744L397.761 208.455L421.05 185.165L421.05 231.744Z" fill="#FAFAFA"/>
</svg>
