<svg width="351" height="36" viewBox="0 0 351 36" fill="none" xmlns="http://www.w3.org/2000/svg">
<path d="M350.25 0L315.191 0V35.059L350.25 35.059V0Z" fill="#2E2E2E"/>
<path d="M315.191 0L280.132 0V35.059L315.191 35.059V0Z" fill="#2E2E2E"/>
<path d="M105.086 0L70.027 0V35.059L105.086 35.059V0Z" fill="#D62340"/>
<path d="M280.132 0L245.073 0V35.059L280.132 35.059V0Z" fill="#FAFAFA"/>
<path d="M35.0927 0L0.0337067 0L0.0337067 35.059L35.0927 35.059L35.0927 0Z" fill="#2E2E2E"/>
<path d="M210.138 0L175.079 0V35.059L210.138 35.059V0Z" fill="#D62340"/>
<path d="M175.204 0L140.145 0V35.059L175.204 35.059V0Z" fill="#2E2E2E"/>
<path d="M70.1518 0L35.0928 0L35.0928 35.059L70.1518 35.059V0Z" fill="#FAFAFA"/>
<path d="M140.145 0L105.086 0V35.059L140.145 35.059V0Z" fill="#2E2E2E"/>
<path d="M245.197 0L210.138 0V35.059L245.197 35.059V0Z" fill="#FAFAFA"/>
<path d="M17.5209 8.81351L8.787 0.0795898L0.0530782 8.81351L8.787 17.5474L17.5209 8.81351Z" fill="#FAFAFA"/>
<path d="M34.9994 8.78519L26.2655 0.0512695L17.5316 8.78519L26.2655 17.5191L34.9994 8.78519Z" fill="#FAFAFA"/>
<path d="M17.5491 26.292L8.81522 17.5581L0.0812917 26.292L8.81522 35.026L17.5491 26.292Z" fill="#FAFAFA"/>
<path d="M35.0277 26.264L26.2938 17.53L17.5599 26.264L26.2938 34.9979L35.0277 26.264Z" fill="#FAFAFA"/>
<path d="M61.2935 0L70.0271 8.73356V0L61.2935 0Z" fill="#FAFAFA"/>
<path d="M52.5599 0L43.8264 0L70.027 26.2007V17.4671L52.5599 0Z" fill="#FAFAFA"/>
<path d="M35.0928 0L70.027 35.059L61.2935 35.059L35.0928 8.73357V0Z" fill="#FAFAFA"/>
<path d="M35.0928 17.4673L52.5599 35.0592H43.8263L35.0928 26.2009V17.4673Z" fill="#FAFAFA"/>
<path d="M140.145 26.2007L131.287 35.059H140.145V26.2007Z" fill="#FAFAFA"/>
<path d="M140.145 17.4672V8.73364L113.82 35.0591H122.553L140.145 17.4672Z" fill="#FAFAFA"/>
<path d="M140.145 0L105.086 35.059V26.2007L131.287 0L140.145 0Z" fill="#FAFAFA"/>
<path d="M122.553 0L105.086 17.4671V8.73356L113.82 0L122.553 0Z" fill="#FAFAFA"/>
<path d="M210.138 17.4673V34.9344H192.671C192.546 25.3275 200.407 17.4673 210.138 17.4673Z" fill="#2E2E2E"/>
<path d="M227.605 35.0592H210.138V17.4673C219.745 17.4673 227.605 25.3275 227.605 35.0592Z" fill="#D62340"/>
<path d="M271.398 8.73364L253.931 8.73364V26.2008L271.398 26.2008V8.73364Z" fill="#2E2E2E"/>
<path d="M306.332 8.73364L288.865 8.73364V26.2008L306.332 26.2008V8.73364Z" fill="#FAFAFA"/>
<path d="M350.153 17.4732L332.685 0.00537109L315.217 17.4732L332.685 34.9411L350.153 17.4732Z" fill="#FAFAFA"/>
<path d="M341.331 17.4732L332.597 8.73926L323.863 17.4732L332.597 26.2071L341.331 17.4732Z" fill="#FAFAFA"/>
</svg>
