<svg width="468" height="140" viewBox="0 0 468 140" fill="none" xmlns="http://www.w3.org/2000/svg">
<path d="M468 93H421.254V139.745H468V93Z" fill="#2E2E2E"/>
<path d="M421.254 93H374.509V139.745H421.254V93Z" fill="#2E2E2E"/>
<path d="M141.115 93H94.3694V139.745H141.115V93Z" fill="#D62340"/>
<path d="M374.509 93H327.763V139.745H374.509V93Z" fill="#FAFAFA"/>
<path d="M47.7903 93H1.04492L1.04492 139.745H47.7903L47.7903 93Z" fill="#2E2E2E"/>
<path d="M281.184 93H234.439V139.745H281.184V93Z" fill="#D62340"/>
<path d="M234.605 93H187.86V139.745H234.605V93Z" fill="#2E2E2E"/>
<path d="M94.5357 93H47.7903L47.7903 139.745H94.5357V93Z" fill="#FAFAFA"/>
<path d="M187.86 93H141.115V139.745H187.86V93Z" fill="#2E2E2E"/>
<path d="M327.93 93H281.184V139.745H327.93V93Z" fill="#FAFAFA"/>
<path d="M24.3612 104.751L12.7159 93.1062L1.07071 104.751L12.7159 116.397L24.3612 104.751Z" fill="#FAFAFA"/>
<path d="M47.6659 104.714L36.0206 93.0684L24.3754 104.714L36.0206 116.359L47.6659 104.714Z" fill="#FAFAFA"/>
<path d="M24.3989 128.056L12.7537 116.411L1.10843 128.056L12.7537 139.701L24.3989 128.056Z" fill="#FAFAFA"/>
<path d="M47.7037 128.019L36.0585 116.373L24.4132 128.019L36.0585 139.664L47.7037 128.019Z" fill="#FAFAFA"/>
<path d="M82.7246 93L94.3694 104.645V93H82.7246Z" fill="#FAFAFA"/>
<path d="M71.0799 93H59.4352L94.3694 127.934V116.29L71.0799 93Z" fill="#FAFAFA"/>
<path d="M47.7903 93L94.3693 139.745H82.7245L47.7903 104.645V93Z" fill="#FAFAFA"/>
<path d="M47.7904 116.29L71.0799 139.746H59.4352L47.7904 127.935V116.29Z" fill="#FAFAFA"/>
<path d="M187.86 127.934L176.049 139.745H187.86V127.934Z" fill="#FAFAFA"/>
<path d="M187.86 116.29V104.645L152.76 139.745H164.404L187.86 116.29Z" fill="#FAFAFA"/>
<path d="M187.86 93L141.115 139.745V127.934L176.049 93H187.86Z" fill="#FAFAFA"/>
<path d="M164.404 93L141.115 116.29V104.645L152.759 93H164.404Z" fill="#FAFAFA"/>
<path d="M281.185 116.29V139.579H257.895C257.729 126.77 268.209 116.29 281.185 116.29Z" fill="#2E2E2E"/>
<path d="M304.474 139.746H281.184V116.29C293.994 116.29 304.474 126.77 304.474 139.746Z" fill="#D62340"/>
<path d="M362.864 104.645H339.575V127.934H362.864V104.645Z" fill="#2E2E2E"/>
<path d="M409.443 104.645H386.154V127.934H409.443V104.645Z" fill="#FAFAFA"/>
<path d="M467.87 116.298L444.58 93.0071L421.289 116.298L444.58 139.588L467.87 116.298Z" fill="#FAFAFA"/>
<path d="M456.108 116.298L444.462 104.652L432.817 116.298L444.462 127.943L456.108 116.298Z" fill="#FAFAFA"/>
<path d="M374.115 92.7454V46L327.369 46V92.7454H374.115Z" fill="#FAFAFA"/>
<path d="M327.43 92.8513V46.106L280.685 46.106V92.8513H327.43Z" fill="#FAFAFA"/>
<path d="M280.745 92.7905V46.0452L234 46.0452V92.7905H280.745Z" fill="#2E2E2E"/>
<path d="M292.452 92.6853L280.808 81.0405V92.6853H292.452Z" fill="#D62340"/>
<path d="M304.097 92.6852H315.742L280.808 57.751V69.3957L304.097 92.6852Z" fill="#D62340"/>
<path d="M327.387 92.6852L280.808 46.1062H292.452L327.387 81.0405V92.6852Z" fill="#D62340"/>
<path d="M327.387 69.3957L304.097 46.1062H315.742L327.387 57.751V69.3957Z" fill="#D62340"/>
<path d="M350.796 92.7482L374.086 69.4578L350.796 46.1673L327.505 69.4577L350.796 92.7482Z" fill="#2E2E2E"/>
<path d="M234.063 46.1069L257.352 69.3964L234.063 92.6859V46.1069Z" fill="#FAFAFA"/>
<path d="M0 46L0 92.7454H46.7454L46.7454 46L0 46Z" fill="#D62340"/>
<path d="M46.6847 46.1055L46.6847 92.8508H93.4301V46.1055L46.6847 46.1055Z" fill="#2E2E2E"/>
<path d="M93.3695 46.0447V92.79H140.115V46.0447L93.3695 46.0447Z" fill="#2E2E2E"/>
<path d="M46.5789 46.1819L46.5789 92.9273H93.3242C93.3242 66.9761 72.3637 46.1819 46.5789 46.1819Z" fill="#FAFAFA"/>
<path d="M46.579 57.8267L46.579 92.7609H81.5132C81.6796 73.4639 66.0423 57.8267 46.579 57.8267Z" fill="#2E2E2E"/>
<path d="M23.2918 46.1729L0.00134277 69.4634L23.2918 92.7538L46.5823 69.4634L23.2918 46.1729Z" fill="#FAFAFA"/>
<path d="M93.3242 92.7609L116.614 69.4714L93.3242 46.1819V92.7609Z" fill="#FAFAFA"/>
<path d="M186.685 46.0007V92.7461H233.43V46.0007L186.685 46.0007Z" fill="#D62340"/>
<path d="M140 46.0618V92.8071H186.745V46.0618L140 46.0618Z" fill="#2E2E2E"/>
<path d="M163.334 81.1777C169.766 81.1777 174.979 75.9642 174.979 69.5329C174.979 63.1017 169.766 57.8882 163.334 57.8882C156.903 57.8882 151.69 63.1017 151.69 69.5329C151.69 75.9642 156.903 81.1777 163.334 81.1777Z" fill="#FAFAFA"/>
<path d="M210.08 57.7217C216.568 57.7217 221.725 62.8786 221.725 69.3664C221.725 75.8542 216.568 81.0112 210.08 81.0112C203.592 81.0112 198.435 75.8542 198.435 69.3664C198.435 63.045 203.592 57.7217 210.08 57.7217Z" fill="#FAFAFA"/>
<path d="M141.115 46.7454V0L94.3695 0V46.7454L141.115 46.7454Z" fill="#FAFAFA"/>
<path d="M94.4302 46.8513V0.105957L47.6848 0.105957L47.6848 46.8513L94.4302 46.8513Z" fill="#FAFAFA"/>
<path d="M47.7454 46.7905L47.7454 0.045166L0.999985 0.045166L0.999985 46.7905L47.7454 46.7905Z" fill="#2E2E2E"/>
<path d="M59.4525 46.6853L47.8077 35.0405V46.6853H59.4525Z" fill="#D62340"/>
<path d="M71.0972 46.6852L82.742 46.6852L47.8077 11.751V23.3957L71.0972 46.6852Z" fill="#D62340"/>
<path d="M94.3867 46.6852L47.8077 0.106201L59.4525 0.106201L94.3867 35.0405V46.6852Z" fill="#D62340"/>
<path d="M94.3868 23.3957L71.0973 0.106201L82.742 0.106201L94.3868 11.751V23.3957Z" fill="#D62340"/>
<path d="M117.796 46.7482L141.086 23.4578L117.796 0.167291L94.5054 23.4577L117.796 46.7482Z" fill="#2E2E2E"/>
<path d="M1.06287 0.106934L24.3524 23.3964L1.06287 46.6859L1.06287 0.106934Z" fill="#FAFAFA"/>
</svg>
