<svg width="854" height="136" viewBox="0 0 854 136" fill="none" xmlns="http://www.w3.org/2000/svg">
<path d="M94.1362 116H70.826L31.8393 56.9747V116H8.52908V20.3054H31.8393L70.826 79.6033V20.3054H94.1362V116ZM134.343 20.3054V116H111.033V20.3054H134.343ZM214.76 50.5678C213.033 47.3871 210.534 44.9788 207.262 43.343C204.082 41.6163 200.31 40.753 195.948 40.753C188.405 40.753 182.362 43.2521 177.818 48.2504C173.274 53.1578 171.002 59.7465 171.002 68.0164C171.002 76.8316 173.365 83.7383 178.09 88.7366C182.907 93.644 189.496 96.0977 197.856 96.0977C203.582 96.0977 208.398 94.6437 212.306 91.7356C216.305 88.8275 219.213 84.6471 221.03 79.1944H191.45V62.0185H242.159V83.6929C240.433 89.5091 237.479 94.9163 233.299 99.9146C229.209 104.913 223.984 108.957 217.622 112.047C211.261 115.137 204.082 116.682 196.084 116.682C186.633 116.682 178.181 114.637 170.729 110.547C163.368 106.367 157.597 100.596 153.417 93.2351C149.328 85.8739 147.283 77.4677 147.283 68.0164C147.283 58.5651 149.328 50.1589 153.417 42.7978C157.597 35.3458 163.368 29.575 170.729 25.4855C178.09 21.3051 186.497 19.2149 195.948 19.2149C207.399 19.2149 217.032 21.9867 224.847 27.5302C232.754 33.0738 237.979 40.753 240.524 50.5678H214.76ZM337.952 20.3054V116H314.642V76.6044H278.381V116H255.071V20.3054H278.381V57.7926H314.642V20.3054H337.952ZM423.62 20.3054V38.9809H398.265V116H374.955V38.9809H349.6V20.3054H423.62ZM487.516 98.0062H518.051V116H464.206V20.3054H487.516V98.0062ZM679.356 50.5678C677.629 47.3871 675.13 44.9788 671.858 43.343C668.678 41.6163 664.906 40.753 660.544 40.753C653.001 40.753 646.958 43.2521 642.414 48.2504C637.87 53.1578 635.598 59.7465 635.598 68.0164C635.598 76.8316 637.961 83.7383 642.687 88.7366C647.503 93.644 654.092 96.0977 662.453 96.0977C668.178 96.0977 672.994 94.6437 676.902 91.7356C680.901 88.8275 683.809 84.6471 685.626 79.1944H656.046V62.0185H706.756V83.6929C705.029 89.5091 702.075 94.9163 697.895 99.9146C693.805 104.913 688.58 108.957 682.219 112.047C675.857 115.137 668.678 116.682 660.68 116.682C651.229 116.682 642.777 114.637 635.325 110.547C627.964 106.367 622.194 100.596 618.013 93.2351C613.924 85.8739 611.879 77.4677 611.879 68.0164C611.879 58.5651 613.924 50.1589 618.013 42.7978C622.194 35.3458 627.964 29.575 635.325 25.4855C642.687 21.3051 651.093 19.2149 660.544 19.2149C671.995 19.2149 681.628 21.9867 689.443 27.5302C697.35 33.0738 702.575 40.753 705.12 50.5678H679.356ZM742.978 20.3054V116H719.667V20.3054H742.978ZM845.477 116H822.167L783.18 56.9747V116H759.87V20.3054H783.18L822.167 79.6033V20.3054H845.477V116Z" fill="#D62340"/>
<path d="M597.928 27.0876C610.333 35.9485 618.406 50.4411 618.406 66.8437C618.406 93.781 596.589 115.618 569.671 115.677C542.793 115.736 520.779 93.8203 520.739 66.9225C520.719 50.5199 528.793 35.9879 541.178 27.1073C543.482 25.4729 546.692 26.1621 548.07 28.6235L551.181 34.1567C552.343 36.2242 551.792 38.8431 549.882 40.2609C541.71 46.3257 536.492 55.9349 536.492 66.824C536.472 84.9988 551.162 99.9245 569.573 99.9245C587.61 99.9245 602.772 85.3138 602.654 66.6271C602.595 56.4272 597.79 46.5817 589.244 40.2412C587.334 38.8234 586.802 36.2045 587.964 34.1567L591.075 28.6235C592.454 26.1818 595.644 25.4533 597.928 27.0876ZM577.449 68.419V21.1606C577.449 18.5417 575.342 16.4348 572.723 16.4348H566.422C563.803 16.4348 561.696 18.5417 561.696 21.1606V68.419C561.696 71.0379 563.803 73.1448 566.422 73.1448H572.723C575.342 73.1448 577.449 71.0379 577.449 68.419Z" fill="#2E2E2E" stroke="#2E2E2E" stroke-width="1.26087"/>
</svg>
