<svg width="261" height="100" viewBox="0 0 261 100" fill="none" xmlns="http://www.w3.org/2000/svg">
<rect width="98.2443" height="98.2443" rx="18.2634" fill="url(#paint0_linear_1154_77)"/>
<path d="M77.6913 63.156C77.4312 62.7419 77.1616 62.3375 76.9016 61.9234C74.0799 57.4645 71.2582 53.0057 68.4462 48.5469C68.3306 48.3639 68.2343 48.1424 68.2151 47.9306C67.8588 43.857 66.395 40.236 63.737 37.135C60.1353 32.9362 55.532 30.702 50.0139 30.442C44.9002 30.2012 40.4028 31.8769 36.5892 35.2379C33.5172 37.9343 31.5719 41.3627 30.6666 45.3593C30.657 45.4171 30.6281 45.4748 30.6088 45.5615C29.8866 43.9725 31.4852 36.6246 33.2957 33.0999C35.3084 29.19 38.1012 25.935 41.7414 23.4697C47.6737 19.4731 54.1934 18.0574 61.2331 19.3672C68.244 20.6673 73.7814 24.3653 77.932 30.2012C80.041 28.8723 82.1212 27.5625 84.2013 26.2432C84.2398 26.2624 84.2784 26.2817 84.3169 26.3106C82.1501 38.5892 79.9833 50.8582 77.8261 63.1368C77.7779 63.1464 77.7298 63.1464 77.6913 63.156Z" fill="white"/>
<path d="M67.8779 53.3331C68.369 60.7581 64.6518 71.1684 54.617 76.6962C48.7618 79.9223 42.5406 80.7698 36.0402 79.2482C29.559 77.7266 24.4357 74.1249 20.574 68.6742C18.4746 69.9935 16.3945 71.3032 14.1699 72.7093C16.3559 60.2862 18.5227 48.0172 20.6896 35.7386C20.7281 35.729 20.7762 35.7194 20.8147 35.7194C21.0844 36.1238 21.354 36.5379 21.6141 36.9424C24.4261 41.382 27.2381 45.8312 30.0309 50.2803C30.1657 50.5018 30.2717 50.7715 30.2909 51.0315C30.6569 54.9799 32.0822 58.495 34.6053 61.5478C37.7255 65.3228 41.7413 67.5763 46.5661 68.2601C52.1902 69.0594 57.2268 67.5571 61.5797 63.9168C64.8444 61.1818 66.8764 57.6571 67.8298 53.5161C67.849 53.4487 67.8683 53.3909 67.8779 53.3331Z" fill="white"/>
<path d="M64.3918 49.481C64.3726 57.8594 57.6025 64.591 49.1952 64.5717C40.8169 64.5524 34.0853 57.7727 34.1046 49.3751C34.1239 40.9583 40.8939 34.2748 49.3975 34.2845C57.6795 34.3134 64.4111 41.122 64.3918 49.481ZM42.2133 49.0477C42.2518 49.0284 42.3 48.9995 42.3385 48.9803C44.6209 51.1086 46.9032 53.2272 49.253 55.4037C49.2723 55.1822 49.2819 55.0762 49.2819 54.9703C49.2819 51.2819 49.2819 47.5839 49.2819 43.8955C49.2819 43.8184 49.3012 43.7125 49.2723 43.6547C49.2049 43.5488 49.1086 43.4043 49.0219 43.3947C48.3381 43.3755 47.6544 43.3851 46.884 43.3851C46.884 45.5519 46.884 47.6706 46.884 49.7892C46.8455 49.7988 46.7973 49.8181 46.7588 49.8277C44.486 47.7187 42.2037 45.6097 39.8924 43.4621C39.8924 47.5261 39.8924 51.4841 39.8924 55.4422C40.6821 55.4422 41.4236 55.4422 42.2325 55.4422C42.2133 53.2946 42.2133 51.1663 42.2133 49.0477ZM50.7361 43.3947C50.7361 47.4587 50.7361 51.4456 50.7361 55.4807C51.5258 55.4807 52.2769 55.4807 53.0281 55.4807C54.7615 55.4807 56.495 55.4903 58.2284 55.4711C58.3729 55.4711 58.6425 55.3363 58.6522 55.2496C58.6907 54.5562 58.6714 53.8532 58.6714 53.1502C58.5077 53.1406 58.4114 53.1213 58.3151 53.1213C56.755 53.1213 55.2045 53.102 53.6444 53.1213C53.2207 53.1309 53.0473 53.0346 53.0666 52.5724C53.1051 51.6286 53.0762 50.6752 53.0762 49.7314C53.0762 47.7765 53.0859 45.8215 53.0666 43.857C53.0666 43.7029 52.9222 43.414 52.8259 43.4043C52.1421 43.3755 51.4487 43.3947 50.7361 43.3947Z" fill="white"/>
<path d="M145.041 45.0382H136.981L123.501 24.6298V45.0382H115.441V11.9512H123.501L136.981 32.4538V11.9512H145.041V45.0382ZM158.942 11.9512V45.0382H150.883V11.9512H158.942ZM186.747 22.4146C186.15 21.3148 185.286 20.4821 184.155 19.9166C183.055 19.3195 181.751 19.021 180.243 19.021C177.635 19.021 175.545 19.8851 173.974 21.6133C172.403 23.3101 171.617 25.5882 171.617 28.4475C171.617 31.4954 172.434 33.8835 174.068 35.6117C175.734 37.3084 178.012 38.1568 180.903 38.1568C182.882 38.1568 184.547 37.6541 185.899 36.6486C187.281 35.6431 188.287 34.1977 188.915 32.3124H178.687V26.3737H196.221V33.8678C195.624 35.8788 194.602 37.7484 193.157 39.4765C191.743 41.2047 189.936 42.603 187.737 43.6713C185.537 44.7397 183.055 45.2738 180.29 45.2738C177.022 45.2738 174.1 44.5669 171.523 43.1529C168.978 41.7075 166.983 39.7122 165.537 37.1671C164.123 34.6219 163.416 31.7154 163.416 28.4475C163.416 25.1797 164.123 22.2732 165.537 19.728C166.983 17.1514 168.978 15.1562 171.523 13.7422C174.068 12.2968 176.975 11.5741 180.243 11.5741C184.202 11.5741 187.533 12.5325 190.235 14.4492C192.968 16.3659 194.775 19.021 195.655 22.4146H186.747ZM229.342 11.9512V45.0382H221.282V31.4169H208.745V45.0382H200.685V11.9512H208.745V24.9126H221.282V11.9512H229.342ZM258.962 11.9512V18.4083H250.195V45.0382H242.135V18.4083H233.369V11.9512H258.962ZM123.501 85.8167H134.059V92.0382H115.441V58.9512H123.501V85.8167ZM189.831 69.4146C189.234 68.3148 188.37 67.4821 187.239 66.9166C186.139 66.3195 184.835 66.021 183.327 66.021C180.719 66.021 178.629 66.8851 177.058 68.6133C175.487 70.3101 174.701 72.5882 174.701 75.4475C174.701 78.4954 175.518 80.8835 177.152 82.6117C178.818 84.3084 181.096 85.1568 183.986 85.1568C185.966 85.1568 187.631 84.6541 188.982 83.6486C190.365 82.6431 191.371 81.1977 191.999 79.3124H181.771V73.3737H199.304V80.8678C198.707 82.8788 197.686 84.7484 196.241 86.4765C194.827 88.2047 193.02 89.603 190.821 90.6713C188.621 91.7397 186.139 92.2738 183.374 92.2738C180.106 92.2738 177.184 91.5669 174.607 90.1529C172.062 88.7075 170.067 86.7122 168.621 84.1671C167.207 81.6219 166.5 78.7154 166.5 75.4475C166.5 72.1797 167.207 69.2732 168.621 66.728C170.067 64.1514 172.062 62.1562 174.607 60.7422C177.152 59.2968 180.059 58.5741 183.327 58.5741C187.286 58.5741 190.616 59.5325 193.319 61.4492C196.052 63.3659 197.859 66.021 198.739 69.4146H189.831ZM211.828 58.9512V92.0382H203.769V58.9512H211.828ZM247.268 92.0382H239.209L225.729 71.6298V92.0382H217.669V58.9512H225.729L239.209 79.4538V58.9512H247.268V92.0382Z" fill="#D62340"/>
<path d="M164.366 62.4619C168.655 65.5256 171.446 70.5365 171.446 76.2078C171.446 85.5216 163.903 93.072 154.596 93.0924C145.302 93.1128 137.691 85.5352 137.677 76.2351C137.67 70.5638 140.462 65.5393 144.744 62.4687C145.541 61.9036 146.65 62.1419 147.127 62.993L148.203 64.9061C148.604 65.621 148.414 66.5265 147.753 67.0167C144.928 69.1136 143.124 72.436 143.124 76.201C143.117 82.4851 148.196 87.6458 154.562 87.6458C160.798 87.6458 166.04 82.594 166 76.1329C165.979 72.6063 164.318 69.2021 161.363 67.0098C160.703 66.5196 160.519 65.6141 160.921 64.9061L161.996 62.993C162.473 62.1487 163.576 61.8968 164.366 62.4619ZM157.285 76.7525V60.4126C157.285 59.5071 156.557 58.7786 155.651 58.7786H153.472C152.567 58.7786 151.838 59.5071 151.838 60.4126V76.7525C151.838 77.658 152.567 78.3865 153.472 78.3865H155.651C156.557 78.3865 157.285 77.658 157.285 76.7525Z" fill="#2E2E2E" stroke="#2E2E2E" stroke-width="0.435954"/>
<defs>
<linearGradient id="paint0_linear_1154_77" x1="49.1221" y1="0" x2="49.1221" y2="98.2443" gradientUnits="userSpaceOnUse">
<stop stop-color="#D52440"/>
<stop offset="1" stop-color="#B32533"/>
</linearGradient>
</defs>
</svg>
