<svg width="52" height="52" viewBox="0 0 52 52" fill="none" xmlns="http://www.w3.org/2000/svg">
<g clip-path="url(#clip0_946_2921)">
<path d="M15.978 15.9253H31.9805V-0.00809383H15.978V15.9253Z" fill="#D62340"/>
<path d="M40.1512 16.0296H31.3611C31.3611 24.8138 38.5091 31.963 47.3636 31.963V23.1788C43.371 23.1788 40.1512 19.9729 40.1512 16.0296Z" fill="#D62340"/>
<path d="M31.3676 51.9922H52.0066V32.0193H31.3676V51.9922Z" fill="#2E2E2E"/>
<path d="M31.9727 40.7793V31.9951C23.1504 31.9951 15.9702 39.1122 15.9702 47.9285H24.7925C24.7925 43.9852 28.0123 40.7793 31.9727 40.7793Z" fill="#D62340"/>
<path d="M-0.00809288 31.9469H15.9944V16.0135H-0.00809288V31.9469Z" fill="#D62340"/>
<path d="M3.98437 27.9715H12.0017V19.9888H3.98437V27.9715Z" fill="white"/>
<path d="M23.1826 31.963H31.9727C31.9727 23.1467 24.8247 16.0296 16.0024 16.0296V24.7818C19.9628 24.7818 23.1826 27.9877 23.1826 31.963Z" fill="#2E2E2E"/>
<path d="M31.8118 15.1319C31.8118 14.6831 32.1659 14.3625 32.5845 14.3625C33.0031 14.3625 33.3573 14.7152 33.3573 15.1319C33.3573 15.5808 33.0031 15.9014 32.5845 15.9014C32.1659 15.9014 31.8118 15.5808 31.8118 15.1319Z" fill="#D62340"/>
<path d="M35.1926 15.1319C35.1926 14.6831 35.5468 14.3625 35.9654 14.3625C36.4162 14.3625 36.7381 14.7152 36.7381 15.1319C36.7381 15.5808 36.384 15.9014 35.9654 15.9014C35.5468 15.9334 35.1926 15.5808 35.1926 15.1319Z" fill="#D62340"/>
<path d="M38.5735 15.1319C38.5735 14.6831 38.9277 14.3625 39.3462 14.3625C39.797 14.3625 40.119 14.7152 40.119 15.1319C40.119 15.5808 39.7648 15.9014 39.3462 15.9014C38.9277 15.9334 38.5735 15.5808 38.5735 15.1319Z" fill="#D62340"/>
<path d="M41.9541 15.1319C41.9541 14.6831 42.3083 14.3625 42.7269 14.3625C43.1776 14.3625 43.4996 14.7152 43.4996 15.1319C43.4996 15.5808 43.1454 15.9014 42.7269 15.9014C42.3083 15.9334 41.9541 15.5808 41.9541 15.1319Z" fill="#D62340"/>
<path d="M45.3027 15.1319C45.3027 14.6831 45.6569 14.3625 46.0755 14.3625C46.5263 14.3625 46.8482 14.7152 46.8482 15.1319C46.8482 15.5808 46.4941 15.9014 46.0755 15.9014C45.6569 15.9334 45.3027 15.5808 45.3027 15.1319Z" fill="#D62340"/>
<path d="M31.8118 12.2787C31.8118 11.8298 32.1659 11.5092 32.5845 11.5092C33.0031 11.5092 33.3573 11.8619 33.3573 12.2787C33.3573 12.7275 33.0031 13.0481 32.5845 13.0481C32.1659 13.0481 31.8118 12.6954 31.8118 12.2787Z" fill="#D62340"/>
<path d="M35.1926 12.2787C35.1926 11.8298 35.5468 11.5092 35.9654 11.5092C36.4162 11.5092 36.7381 11.8619 36.7381 12.2787C36.7381 12.7275 36.384 13.0481 35.9654 13.0481C35.5468 13.0481 35.1926 12.6954 35.1926 12.2787Z" fill="#D62340"/>
<path d="M38.5735 12.2787C38.5735 11.8298 38.9277 11.5092 39.3462 11.5092C39.797 11.5092 40.119 11.8619 40.119 12.2787C40.119 12.7275 39.7648 13.0481 39.3462 13.0481C38.9277 13.0481 38.5735 12.6954 38.5735 12.2787Z" fill="#D62340"/>
<path d="M41.9541 12.2787C41.9541 11.8298 42.3083 11.5092 42.7269 11.5092C43.1776 11.5092 43.4996 11.8619 43.4996 12.2787C43.4996 12.7275 43.1454 13.0481 42.7269 13.0481C42.3083 13.0481 41.9541 12.6954 41.9541 12.2787Z" fill="#D62340"/>
<path d="M45.3027 12.2787C45.3027 11.8298 45.6569 11.5092 46.0755 11.5092C46.5263 11.5092 46.8482 11.8619 46.8482 12.2787C46.8482 12.7275 46.4941 13.0481 46.0755 13.0481C45.6569 13.0481 45.3027 12.6954 45.3027 12.2787Z" fill="#D62340"/>
<path d="M31.8118 9.39335C31.8118 8.94452 32.1659 8.62393 32.5845 8.62393C33.0031 8.62393 33.3573 8.97658 33.3573 9.39335C33.3573 9.84218 33.0031 10.1628 32.5845 10.1628C32.1659 10.1628 31.8118 9.84218 31.8118 9.39335Z" fill="#D62340"/>
<path d="M35.1926 9.39335C35.1926 8.94452 35.5468 8.62393 35.9654 8.62393C36.4162 8.62393 36.7381 8.97658 36.7381 9.39335C36.7381 9.84218 36.384 10.1628 35.9654 10.1628C35.5468 10.1948 35.1926 9.84218 35.1926 9.39335Z" fill="#D62340"/>
<path d="M38.5735 9.39335C38.5735 8.94452 38.9277 8.62393 39.3462 8.62393C39.797 8.62393 40.119 8.97658 40.119 9.39335C40.119 9.84218 39.7648 10.1628 39.3462 10.1628C38.9277 10.1948 38.5735 9.84218 38.5735 9.39335Z" fill="#D62340"/>
<path d="M41.9541 9.39335C41.9541 8.94452 42.3083 8.62393 42.7269 8.62393C43.1776 8.62393 43.4996 8.97658 43.4996 9.39335C43.4996 9.84218 43.1454 10.1628 42.7269 10.1628C42.3083 10.1948 41.9541 9.84218 41.9541 9.39335Z" fill="#D62340"/>
<path d="M45.3027 9.39335C45.3027 8.94452 45.6569 8.62393 46.0755 8.62393C46.5263 8.62393 46.8482 8.97658 46.8482 9.39335C46.8482 9.84218 46.4941 10.1628 46.0755 10.1628C45.6569 10.1948 45.3027 9.84218 45.3027 9.39335Z" fill="#D62340"/>
<path d="M31.8118 6.54008C31.8118 6.09125 32.1659 5.77066 32.5845 5.77066C33.0031 5.77066 33.3573 6.12331 33.3573 6.54008C33.3573 6.98891 33.0031 7.3095 32.5845 7.3095C32.1659 7.3095 31.8118 6.95685 31.8118 6.54008Z" fill="#D62340"/>
<path d="M35.1926 6.54008C35.1926 6.09125 35.5468 5.77066 35.9654 5.77066C36.4162 5.77066 36.7381 6.12331 36.7381 6.54008C36.7381 6.98891 36.384 7.3095 35.9654 7.3095C35.5468 7.3095 35.1926 6.95685 35.1926 6.54008Z" fill="#D62340"/>
<path d="M38.5735 6.54008C38.5735 6.09125 38.9277 5.77066 39.3462 5.77066C39.797 5.77066 40.119 6.12331 40.119 6.54008C40.119 6.98891 39.7648 7.3095 39.3462 7.3095C38.9277 7.3095 38.5735 6.95685 38.5735 6.54008Z" fill="#D62340"/>
<path d="M41.9541 6.54008C41.9541 6.09125 42.3083 5.77066 42.7269 5.77066C43.1776 5.77066 43.4996 6.12331 43.4996 6.54008C43.4996 6.98891 43.1454 7.3095 42.7269 7.3095C42.3083 7.3095 41.9541 6.95685 41.9541 6.54008Z" fill="#D62340"/>
<path d="M45.3027 6.54008C45.3027 6.09125 45.6569 5.77066 46.0755 5.77066C46.5263 5.77066 46.8482 6.12331 46.8482 6.54008C46.8482 6.98891 46.4941 7.3095 46.0755 7.3095C45.6569 7.3095 45.3027 6.95685 45.3027 6.54008Z" fill="#D62340"/>
<path d="M31.8118 3.65474C31.8118 3.20591 32.1659 2.88531 32.5845 2.88531C33.0031 2.88531 33.3573 3.23797 33.3573 3.65474C33.3573 4.10356 33.0031 4.42416 32.5845 4.42416C32.1659 4.42416 31.8118 4.10356 31.8118 3.65474Z" fill="#D62340"/>
<path d="M35.1926 3.65474C35.1926 3.20591 35.5468 2.88531 35.9654 2.88531C36.4162 2.88531 36.7381 3.23797 36.7381 3.65474C36.7381 4.10356 36.384 4.42416 35.9654 4.42416C35.5468 4.45622 35.1926 4.10356 35.1926 3.65474Z" fill="#D62340"/>
<path d="M38.5735 3.65474C38.5735 3.20591 38.9277 2.88531 39.3462 2.88531C39.797 2.88531 40.119 3.23797 40.119 3.65474C40.119 4.10356 39.7648 4.42416 39.3462 4.42416C38.9277 4.45622 38.5735 4.10356 38.5735 3.65474Z" fill="#D62340"/>
<path d="M41.9541 3.65474C41.9541 3.20591 42.3083 2.88531 42.7269 2.88531C43.1776 2.88531 43.4996 3.23797 43.4996 3.65474C43.4996 4.10356 43.1454 4.42416 42.7269 4.42416C42.3083 4.45622 41.9541 4.10356 41.9541 3.65474Z" fill="#D62340"/>
<path d="M45.3027 3.65474C45.3027 3.20591 45.6569 2.88531 46.0755 2.88531C46.5263 2.88531 46.8482 3.23797 46.8482 3.65474C46.8482 4.10356 46.4941 4.42416 46.0755 4.42416C45.6569 4.45622 45.3027 4.10356 45.3027 3.65474Z" fill="#D62340"/>
<path d="M31.8118 0.769421C31.8118 0.320592 32.1659 0 32.5845 0C33.0031 0 33.3573 0.352651 33.3573 0.769421C33.3573 1.21825 33.0031 1.53884 32.5845 1.53884C32.1659 1.53884 31.8118 1.21825 31.8118 0.769421Z" fill="#D62340"/>
<path d="M35.1926 0.769421C35.1926 0.320592 35.5468 0 35.9654 0C36.4162 0 36.7381 0.352651 36.7381 0.769421C36.7381 1.21825 36.384 1.53884 35.9654 1.53884C35.5468 1.5709 35.1926 1.21825 35.1926 0.769421Z" fill="#D62340"/>
<path d="M38.5735 0.769421C38.5735 0.320592 38.9277 0 39.3462 0C39.797 0 40.119 0.352651 40.119 0.769421C40.119 1.21825 39.7648 1.53884 39.3462 1.53884C38.9277 1.5709 38.5735 1.21825 38.5735 0.769421Z" fill="#D62340"/>
<path d="M41.9541 0.769421C41.9541 0.320592 42.3083 0 42.7269 0C43.1776 0 43.4996 0.352651 43.4996 0.769421C43.4996 1.21825 43.1454 1.53884 42.7269 1.53884C42.3083 1.5709 41.9541 1.21825 41.9541 0.769421Z" fill="#D62340"/>
<path d="M45.3027 0.769421C45.3027 0.320592 45.6569 0 46.0755 0C46.5263 0 46.8482 0.352651 46.8482 0.769421C46.8482 1.21825 46.4941 1.53884 46.0755 1.53884C45.6569 1.5709 45.3027 1.21825 45.3027 0.769421Z" fill="#D62340"/>
<path d="M16.0025 39.1763V31.9951L8.79009 31.9951H0C0 40.7793 7.14799 47.9285 16.0025 47.9285L16.0025 39.1763Z" fill="#2E2E2E"/>
<path d="M52.0323 23.1788H47.3635V31.931H52.0323V23.1788Z" fill="#D62340"/>
<path d="M24.7925 47.9285H16.0024V52H24.7925V47.9285Z" fill="#D62340"/>
</g>
<defs>
<clipPath id="clip0_946_2921">
<rect width="52" height="52" fill="white"/>
</clipPath>
</defs>
</svg>
