<svg width="80" height="69" viewBox="0 0 80 69" fill="none" xmlns="http://www.w3.org/2000/svg">
<path d="M71.7485 49.996C71.4548 49.5283 71.1502 49.0714 70.8565 48.6037C67.6694 43.5673 64.4822 38.531 61.306 33.4947C61.1754 33.288 61.0667 33.0378 61.0449 32.7985C60.6424 28.1973 58.989 24.1073 55.9868 20.6047C51.9186 15.862 46.7191 13.3384 40.4862 13.0447C34.7102 12.7728 29.6303 14.6655 25.3228 18.4618C21.8529 21.5075 19.6556 25.38 18.6331 29.8942C18.6222 29.9594 18.5896 30.0247 18.5678 30.1226C17.752 28.3278 19.5577 20.0282 21.6027 16.047C23.8761 11.6307 27.0306 7.95402 31.1423 5.16935C37.8429 0.655135 45.2071 -0.943875 53.1586 0.535481C61.0775 2.00396 67.3322 6.18096 72.0204 12.7728C74.4026 11.2717 76.7522 9.79233 79.1017 8.3021C79.1453 8.32386 79.1888 8.34561 79.2323 8.37824C76.7848 22.2472 74.3373 36.1053 71.9008 49.9742C71.8464 49.9851 71.792 49.9851 71.7485 49.996Z" fill="#FAFAFA"/>
<path d="M60.6644 38.9008C61.2192 47.2874 57.0204 59.0461 45.686 65.2899C39.0724 68.9339 32.0454 69.8911 24.7031 68.1724C17.3824 66.4538 11.5955 62.3855 7.23361 56.2288C4.86229 57.719 2.51273 59.1984 0 60.7865C2.46922 46.7544 4.91668 32.8963 7.36414 19.0274C7.40765 19.0165 7.46204 19.0056 7.50555 19.0056C7.81013 19.4625 8.1147 19.9302 8.4084 20.3871C11.5847 25.4017 14.7609 30.4271 17.9154 35.4526C18.0677 35.7028 18.1874 36.0073 18.2091 36.301C18.6225 40.7608 20.2324 44.7312 23.0823 48.1794C26.6066 52.4434 31.1426 54.9888 36.5923 55.7611C42.9448 56.6639 48.6338 54.967 53.5505 50.8553C57.238 47.766 59.5332 43.7848 60.6101 39.1074C60.6318 39.0313 60.6536 38.966 60.6644 38.9008Z" fill="#FAFAFA"/>
<path d="M56.7268 34.5499C56.705 44.0134 49.058 51.6169 39.5619 51.5951C30.0983 51.5734 22.4949 43.9155 22.5166 34.4302C22.5384 24.9232 30.1854 17.3741 39.7903 17.385C49.1451 17.4177 56.7485 25.1081 56.7268 34.5499ZM31.6756 34.0604C31.7191 34.0387 31.7735 34.006 31.817 33.9843C34.395 36.3882 36.973 38.7813 39.6271 41.2396C39.6489 40.9894 39.6598 40.8698 39.6598 40.7501C39.6598 36.584 39.6598 32.407 39.6598 28.2409C39.6598 28.1539 39.6815 28.0342 39.6489 27.9689C39.5728 27.8493 39.464 27.6861 39.3661 27.6752C38.5938 27.6535 37.8215 27.6644 36.9512 27.6644C36.9512 30.1118 36.9512 32.5049 36.9512 34.898C36.9077 34.9089 36.8533 34.9306 36.8098 34.9415C34.2427 32.5593 31.6647 30.1771 29.0541 27.7514C29.0541 32.3417 29.0541 36.8124 29.0541 41.2831C29.9461 41.2831 30.7836 41.2831 31.6974 41.2831C31.6756 38.8574 31.6756 36.4535 31.6756 34.0604ZM41.3023 27.6752C41.3023 32.2656 41.3023 36.7689 41.3023 41.3267C42.1943 41.3267 43.0427 41.3267 43.8912 41.3267C45.8491 41.3267 47.8071 41.3375 49.7651 41.3158C49.9282 41.3158 50.2328 41.1635 50.2437 41.0656C50.2872 40.2824 50.2654 39.4883 50.2654 38.6943C50.0805 38.6834 49.9718 38.6616 49.863 38.6616C48.1008 38.6616 46.3495 38.6399 44.5873 38.6616C44.1087 38.6725 43.9129 38.5637 43.9347 38.0416C43.9782 36.9756 43.9456 35.8987 43.9456 34.8327C43.9456 32.6246 43.9564 30.4164 43.9347 28.1974C43.9347 28.0233 43.7715 27.697 43.6627 27.6861C42.8904 27.6535 42.1072 27.6752 41.3023 27.6752Z" fill="#FAFAFA"/>
</svg>
