<svg width="63" height="63" viewBox="0 0 63 63" fill="none" xmlns="http://www.w3.org/2000/svg">
<rect width="62.75" height="62.75" rx="12.5" fill="url(#paint0_linear_950_6446)"/>
<path fill-rule="evenodd" clip-rule="evenodd" d="M36.6133 15.7254L38.2581 12.7324C38.2887 12.658 38.2907 12.5748 38.2639 12.499C38.237 12.4231 38.1831 12.3598 38.1124 12.3212C38.0418 12.2826 37.9594 12.2714 37.8811 12.2897C37.8027 12.308 37.7338 12.3546 37.6877 12.4206L36.0257 15.444C34.5711 14.8032 32.9984 14.4741 31.4089 14.478C29.7565 14.478 28.1954 14.8222 26.7997 15.4401L25.134 12.4206C25.1137 12.383 25.0861 12.3497 25.0529 12.3228C25.0198 12.2958 24.9816 12.2757 24.9406 12.2635C24.8996 12.2513 24.8567 12.2473 24.8141 12.2518C24.7716 12.2562 24.7304 12.269 24.6928 12.2894C24.6549 12.3093 24.6213 12.3367 24.594 12.3698C24.5668 12.4029 24.5464 12.4412 24.5342 12.4823C24.522 12.5234 24.5181 12.5665 24.5228 12.6092C24.5275 12.6518 24.5407 12.6931 24.5616 12.7305L26.2083 15.7197C22.9758 17.3816 20.7891 20.5438 20.791 24.1756L42.0231 24.1737C42.0231 20.5419 39.8439 17.3873 36.6133 15.7254ZM26.5772 20.346C26.4606 20.3459 26.3452 20.3228 26.2375 20.278C26.1298 20.2333 26.0319 20.1678 25.9496 20.0852C25.8672 20.0027 25.8019 19.9047 25.7574 19.797C25.7129 19.6892 25.69 19.5737 25.6902 19.4571C25.6903 19.3404 25.7134 19.225 25.7581 19.1173C25.8029 19.0096 25.8684 18.9118 25.9509 18.8294C26.0335 18.7471 26.1314 18.6818 26.2392 18.6372C26.347 18.5927 26.4625 18.5699 26.5791 18.57C26.8149 18.57 27.041 18.6637 27.2077 18.8304C27.3744 18.9971 27.4681 19.2232 27.4681 19.459C27.4681 19.6947 27.3744 19.9208 27.2077 20.0875C27.041 20.2543 26.8149 20.3479 26.5791 20.3479L26.5772 20.346ZM41.9508 24.9895L41.9546 40.2242C41.9546 41.1389 41.4564 41.9299 40.7224 42.3672C40.3354 42.6021 39.8916 42.727 39.4389 42.7285L37.72 42.7304V47.9291C37.7197 48.2785 37.6416 48.6234 37.4913 48.9388C37.341 49.2542 37.1224 49.5322 36.8512 49.7525C36.5801 49.9729 36.2633 50.13 35.9238 50.2126C35.5843 50.2952 35.2307 50.3011 34.8887 50.2299C34.3584 50.1215 33.8818 49.8337 33.5389 49.415C33.196 48.9963 33.0079 48.4722 33.0062 47.931V42.7304H29.8212V47.931C29.8202 48.5545 29.5716 49.1521 29.1302 49.5924C28.6888 50.0328 28.0906 50.2799 27.4671 50.2794C26.8439 50.2789 26.2463 50.0315 25.8051 49.5913C25.3639 49.1512 25.1151 48.5542 25.1131 47.931V42.7304H23.3998C22.4091 42.7304 21.5611 42.16 21.1522 41.3309C20.9781 40.9885 20.8863 40.6103 20.8841 40.2262L20.8803 24.9952L41.9508 24.9895ZM17.6079 24.5521C18.9085 24.5521 19.9657 25.6036 19.9657 26.8986V36.7293C19.9651 37.1545 19.8492 37.5717 19.6305 37.9364C19.4118 38.3011 19.0984 38.5997 18.7236 38.8006C18.3488 39.0015 17.9265 39.0971 17.5018 39.0772C17.077 39.0573 16.6655 38.9228 16.311 38.6878C15.9857 38.475 15.7186 38.1845 15.5337 37.8426C15.3488 37.5006 15.2519 37.118 15.2519 36.7293L15.25 26.8967C15.25 25.6036 16.3053 24.5521 17.6079 24.5521ZM45.2176 24.5502C46.5182 24.5502 47.5754 25.5998 47.5754 26.8967V36.7255C47.5754 38.0242 46.5201 39.0738 45.2195 39.0738C43.917 39.0738 42.8616 38.0242 42.8616 36.7255V26.8948C42.8616 25.5979 43.9151 24.5464 45.2157 24.5483L45.2176 24.5502ZM36.2425 18.5719C36.3625 18.5664 36.4823 18.5852 36.5947 18.6273C36.7072 18.6693 36.81 18.7338 36.8968 18.8167C36.9837 18.8996 37.0528 18.9993 37.1 19.1097C37.1472 19.2201 37.1716 19.3389 37.1716 19.459C37.1716 19.579 37.1472 19.6979 37.1 19.8083C37.0528 19.9186 36.9837 20.0183 36.8968 20.1012C36.81 20.1841 36.7072 20.2486 36.5947 20.2907C36.4823 20.3327 36.3625 20.3516 36.2425 20.346C36.1226 20.3516 36.0027 20.3327 35.8903 20.2907C35.7778 20.2486 35.6751 20.1841 35.5882 20.1012C35.5014 20.0183 35.4322 19.9186 35.385 19.8083C35.3378 19.6979 35.3134 19.579 35.3134 19.459C35.3134 19.3389 35.3378 19.2201 35.385 19.1097C35.4322 18.9993 35.5014 18.8996 35.5882 18.8167C35.6751 18.7338 35.7778 18.6693 35.8903 18.6273C36.0027 18.5852 36.1226 18.5664 36.2425 18.5719Z" fill="white"/>
<defs>
<linearGradient id="paint0_linear_950_6446" x1="0" y1="0" x2="62.75" y2="62.75" gradientUnits="userSpaceOnUse">
<stop stop-color="#76B3AA"/>
<stop offset="0.858143" stop-color="#196F62"/>
</linearGradient>
</defs>
</svg>
