<svg width="64" height="63" viewBox="0 0 64 63" fill="none" xmlns="http://www.w3.org/2000/svg">
<rect x="0.5" width="62.75" height="62.75" rx="12.5" fill="url(#paint0_linear_950_6441)"/>
<path d="M42.3503 15.3329C40.4363 15.3329 38.552 14.9929 36.7827 14.3431C35.0135 13.6963 33.3346 12.736 31.875 11.5C30.4154 12.736 28.7365 13.6963 26.9673 14.3431C25.1844 14.9978 23.2995 15.3329 21.3997 15.3329H14V26.4062C14 38.87 20.8684 45.3582 31.875 51.25C42.8816 45.3582 49.75 38.87 49.75 26.4062V15.3329H42.3503ZM23.5891 36.6155H21.255V32.5784H23.5891V36.6155ZM21.3717 29.2012C21.3717 23.4219 26.0834 18.7202 31.875 18.7202C37.6666 18.7202 42.3783 23.4219 42.3783 29.2012H40.0442C40.0442 24.706 36.3797 21.0493 31.875 21.0493C27.3703 21.0493 23.7058 24.706 23.7058 29.2012H21.3717ZM39.7524 38.5222H33.7827L30.708 35.4276V29.5894H33.042V34.4688L34.7552 36.1931H39.7524V38.5222ZM42.3907 33.8594H35.3761V29.8999C35.3761 27.9737 33.8053 26.4062 31.875 26.4062C29.9447 26.4062 28.3739 27.9737 28.3739 29.8999V38.5952H26.0399V29.8999C26.0399 26.6888 28.6579 24.0771 31.875 24.0771C35.0929 24.0771 37.7101 26.6888 37.7101 29.8999V31.5303H42.3907V33.8594Z" fill="white"/>
<defs>
<linearGradient id="paint0_linear_950_6441" x1="0.5" y1="0" x2="63.25" y2="62.75" gradientUnits="userSpaceOnUse">
<stop stop-color="#C4BC8E"/>
<stop offset="1" stop-color="#686657"/>
</linearGradient>
</defs>
</svg>
