<svg width="64" height="63" viewBox="0 0 64 63" fill="none" xmlns="http://www.w3.org/2000/svg">
<rect x="0.5" width="62.75" height="62.75" rx="12.5" fill="url(#paint0_linear_950_6449)"/>
<path d="M47.75 30.2917C47.2792 30.295 46.8128 30.3833 46.3733 30.5521L41.6772 26.7079C41.7928 26.2888 41.875 25.8541 41.875 25.3958C41.875 22.6816 39.6934 20.5 36.9792 20.5C34.2649 20.5 32.0833 22.6816 32.0833 25.3958C32.0833 26.1713 32.2792 26.894 32.5964 27.5441L26.8996 34.2769C26.6716 34.2342 26.4403 34.2113 26.2083 34.2083C25.8578 34.2083 25.5268 34.2671 25.2057 34.3533L20.1865 29.334C20.2746 29.0148 20.3333 28.6839 20.3333 28.3333C20.3333 26.1635 18.5865 24.4167 16.4167 24.4167C14.2468 24.4167 12.5 26.1635 12.5 28.3333C12.5 30.5032 14.2468 32.25 16.4167 32.25C16.7672 32.25 17.0982 32.1912 17.4193 32.1051L22.4385 37.1243C22.3444 37.4497 22.295 37.7863 22.2917 38.125C22.2917 40.2948 24.0385 42.0417 26.2083 42.0417C28.3782 42.0417 30.125 40.2948 30.125 38.125C30.125 37.6609 30.031 37.2242 29.8841 36.811L35.5888 30.0704C36.0333 30.1996 36.4935 30.2917 36.9792 30.2917C37.752 30.2874 38.5127 30.0987 39.198 29.7414L43.896 33.5856C43.8591 33.7912 43.8382 33.9994 43.8333 34.2083C43.8333 36.3782 45.5802 38.125 47.75 38.125C49.9198 38.125 51.6667 36.3782 51.6667 34.2083C51.6667 32.0385 49.9198 30.2917 47.75 30.2917Z" fill="white"/>
<defs>
<linearGradient id="paint0_linear_950_6449" x1="0.5" y1="0" x2="63.25" y2="62.75" gradientUnits="userSpaceOnUse">
<stop offset="0.119792" stop-color="#FDA34A"/>
<stop offset="1" stop-color="#FC544A"/>
</linearGradient>
</defs>
</svg>
