<svg width="63" height="63" viewBox="0 0 63 63" fill="none" xmlns="http://www.w3.org/2000/svg">
<rect width="62.75" height="62.75" rx="12.5" fill="url(#paint0_linear_950_6452)"/>
<path d="M39.104 19.0834C40.7861 19.0834 42.0772 20.3654 43.0338 21.7448L43.3578 22.233L43.6543 22.7197C43.7486 22.8779 43.8384 23.036 43.9251 23.1881C45.1219 25.3279 46.1637 28.1217 46.8527 30.882C47.537 33.621 47.9157 36.4817 47.6739 38.731C47.4306 40.9895 46.2671 43.4167 43.6665 43.4167C41.3336 43.4167 39.4949 42.1696 38.0014 40.9514L36.3133 39.5355C34.9096 38.3858 33.3735 37.3334 31.4998 37.3334C29.6262 37.3334 28.0886 38.3858 26.6879 39.5355L24.9998 40.9499C23.5033 42.1696 21.6646 43.4167 19.3332 43.4167C16.731 43.4167 15.5676 40.9895 15.3258 38.731C15.0855 36.4802 15.4627 33.621 16.147 30.882C16.836 28.1217 17.8777 25.3279 19.0746 23.1881L19.3453 22.7182L19.6419 22.233L19.9658 21.7448C20.9224 20.3654 22.2136 19.0834 23.8957 19.0834C24.6713 19.0834 25.4424 19.272 26.1997 19.494L27.1016 19.7708C27.2506 19.8164 27.3982 19.8605 27.5457 19.9016C28.8612 20.2787 30.2071 20.6042 31.4998 20.6042C32.7926 20.6042 34.1385 20.2787 35.454 19.9016L36.7999 19.4955C37.5573 19.272 38.3284 19.0834 39.104 19.0834ZM26.1769 25.1667C25.1686 25.1667 24.2015 25.5673 23.4884 26.2803C22.7754 26.9933 22.3748 27.9604 22.3748 28.9688C22.3748 29.9772 22.7754 30.9442 23.4884 31.6573C24.2015 32.3703 25.1686 32.7709 26.1769 32.7709C27.1853 32.7709 28.1524 32.3703 28.8654 31.6573C29.5784 30.9442 29.979 29.9772 29.979 28.9688C29.979 27.9604 29.5784 26.9933 28.8654 26.2803C28.1524 25.5673 27.1853 25.1667 26.1769 25.1667ZM36.8228 25.1667C36.4194 25.1667 36.0326 25.3269 35.7474 25.6121C35.4622 25.8974 35.3019 26.2842 35.3019 26.6875V27.448H34.5415C34.1382 27.448 33.7513 27.6082 33.4661 27.8934C33.1809 28.1786 33.0207 28.5654 33.0207 28.9688C33.0207 29.3721 33.1809 29.759 33.4661 30.0442C33.7513 30.3294 34.1382 30.4896 34.5415 30.4896H35.3019V31.25C35.3019 31.6534 35.4622 32.0402 35.7474 32.3254C36.0326 32.6106 36.4194 32.7709 36.8228 32.7709C37.2261 32.7709 37.6129 32.6106 37.8982 32.3254C38.1834 32.0402 38.3436 31.6534 38.3436 31.25V30.4896H39.104C39.5074 30.4896 39.8942 30.3294 40.1794 30.0442C40.4646 29.759 40.6248 29.3721 40.6248 28.9688C40.6248 28.5654 40.4646 28.1786 40.1794 27.8934C39.8942 27.6082 39.5074 27.448 39.104 27.448H38.3436V26.6875C38.3436 26.2842 38.1834 25.8974 37.8982 25.6121C37.6129 25.3269 37.2261 25.1667 36.8228 25.1667ZM26.1769 28.2084C26.3786 28.2084 26.572 28.2885 26.7146 28.4311C26.8572 28.5737 26.9373 28.7671 26.9373 28.9688C26.9373 29.1705 26.8572 29.3639 26.7146 29.5065C26.572 29.6491 26.3786 29.7292 26.1769 29.7292C25.9753 29.7292 25.7818 29.6491 25.6392 29.5065C25.4966 29.3639 25.4165 29.1705 25.4165 28.9688C25.4165 28.7671 25.4966 28.5737 25.6392 28.4311C25.7818 28.2885 25.9753 28.2084 26.1769 28.2084Z" fill="white"/>
<defs>
<linearGradient id="paint0_linear_950_6452" x1="0" y1="0" x2="62.75" y2="62.75" gradientUnits="userSpaceOnUse">
<stop offset="0.0260417" stop-color="#B760EC"/>
<stop offset="1" stop-color="#6E21AA"/>
</linearGradient>
</defs>
</svg>
