<svg width="63" height="63" viewBox="0 0 63 63" fill="none" xmlns="http://www.w3.org/2000/svg">
<rect width="62.75" height="62.75" rx="12.5" fill="url(#paint0_linear_950_6463)"/>
<path fill-rule="evenodd" clip-rule="evenodd" d="M32.5995 25.838C30.7884 25.838 29.3149 27.3114 29.3149 29.122C29.3149 30.9331 30.7884 32.4061 32.5993 32.4061C34.4099 32.4061 35.8835 30.9331 35.8835 29.122C35.8835 27.3114 34.41 25.838 32.5995 25.838ZM31.8752 9.7515V24.4449C29.608 24.7945 27.8665 26.759 27.8665 29.1225C27.8665 31.4857 29.608 33.4501 31.8752 33.7997V49.9782C31.8752 49.9782 31.8752 49.9783 31.8752 49.9783H28.0838V44.1344H20.5599C19.0591 44.1344 17.8426 42.918 17.8426 41.4172V34.7943H15.0908C14.429 34.7943 14.0271 34.0636 14.3822 33.5048L17.8426 28.0528V24.6414C17.8356 24.4561 17.8308 24.2689 17.8308 24.0817C17.8312 23.8949 17.8351 23.7082 17.8425 23.5216C18.1332 15.9609 24.2791 9.90103 31.8752 9.75C31.8752 9.7505 31.8752 9.751 31.8752 9.7515ZM33.3237 9.79339V24.445C35.5906 24.7947 37.332 26.7591 37.332 29.1225C37.332 31.4856 35.5905 33.45 33.3237 33.7997V49.9782C33.3237 49.9782 33.3237 49.9783 33.3237 49.9783H36.7067C36.7067 49.9783 36.7067 49.9782 36.7067 49.9782V44.1941C35.5481 43.8758 34.6943 42.813 34.6943 41.5548C34.6943 40.0455 35.9221 38.8176 37.431 38.8176C38.9403 38.8176 40.1676 40.0455 40.1676 41.5548C40.1676 42.813 39.3138 43.8758 38.1552 44.1941V49.9782C38.1552 49.9782 38.1552 49.9783 38.1552 49.9783H39.5843H42.3586H42.3591V36.2222C42.3591 35.9961 42.3733 35.7716 42.4012 35.5496H40.2353C39.8351 35.5496 39.5111 35.2253 39.5111 34.8254V26.199C38.3526 25.8806 37.4989 24.8178 37.4989 23.5597C37.4989 22.0504 38.7266 20.8225 40.2354 20.8225C41.7448 20.8225 42.9726 22.0504 42.9726 23.5597C42.9726 24.818 42.1186 25.8809 40.9596 26.1991V34.1012H42.5425C42.623 34.1012 42.7004 34.1143 42.7728 34.1385C42.8514 33.9464 42.9407 33.7583 43.0401 33.5752C43.0556 33.5464 43.0715 33.5178 43.0876 33.4893C43.2227 33.2502 43.3752 33.0198 43.544 32.7999C44.0341 32.1612 44.4717 31.4801 44.8502 30.7631C44.9045 30.6603 44.9576 30.5567 45.0094 30.4525C45.957 28.5465 46.4927 26.3995 46.4999 24.1279C46.5029 23.1584 46.4081 22.2096 46.2247 21.2912C45.9437 19.8842 45.4549 18.5484 44.7914 17.3183C44.6852 17.3795 44.562 17.4145 44.4306 17.4145H40.0703C39.7518 18.5733 38.6891 19.4269 37.431 19.4269C35.9221 19.4269 34.6943 18.1991 34.6943 16.6898C34.6943 15.181 35.9221 13.9532 37.431 13.9532C38.6897 13.9532 39.7524 14.8072 40.0705 15.966H43.9629C41.5811 12.5189 37.7314 10.1482 33.3237 9.79339ZM38.7191 41.5548C38.7191 42.0804 38.4026 42.5338 37.9499 42.7338C37.8184 42.5987 37.6345 42.5147 37.431 42.5147C37.2276 42.5147 37.0438 42.5987 36.9122 42.7337C36.4596 42.5337 36.1428 42.0804 36.1428 41.5548C36.1428 40.8443 36.7208 40.2661 37.431 40.2661C38.1416 40.2661 38.7191 40.8443 38.7191 41.5548ZM36.1428 16.6903C36.1428 15.9798 36.7208 15.4016 37.431 15.4016C38.1416 15.4016 38.7191 15.9797 38.7191 16.6903C38.7191 17.4003 38.1416 17.9785 37.431 17.9785C36.721 17.9785 36.1428 17.4004 36.1428 16.6903ZM40.2381 24.8478C40.947 24.8464 41.5241 24.2689 41.5241 23.5597C41.5241 22.8492 40.9456 22.271 40.2354 22.271C39.5255 22.271 38.9474 22.8492 38.9474 23.5597C38.9474 24.2689 39.524 24.8463 40.2327 24.8478L40.2353 24.8478L40.2381 24.8478Z" fill="white"/>
<defs>
<linearGradient id="paint0_linear_950_6463" x1="0.125" y1="0.125004" x2="62.75" y2="62.75" gradientUnits="userSpaceOnUse">
<stop offset="0.0260417" stop-color="#F1E084"/>
<stop offset="0.823138" stop-color="#FDA34A"/>
</linearGradient>
</defs>
</svg>
