<svg width="63" height="63" viewBox="0 0 63 63" fill="none" xmlns="http://www.w3.org/2000/svg">
<rect width="62.75" height="62.75" rx="12.5" fill="url(#paint0_linear_950_6470)"/>
<path d="M12 45.4562C12 46.7231 13.0231 47.75 14.2852 47.75H48.7148C49.9769 47.75 51 46.7231 51 45.4562V44.5109C51 43.8205 50.4404 43.2609 49.75 43.2609H13.25C12.5596 43.2609 12 43.8205 12 44.5109V45.4562ZM47.1804 40.967C47.8708 40.967 48.4304 40.4074 48.4304 39.717V16.25C48.4304 15.5596 47.8708 15 47.1804 15H15.8196C15.1292 15 14.5696 15.5596 14.5696 16.25V39.717C14.5696 40.4074 15.1292 40.967 15.8196 40.967H47.1804ZM37.0034 25.9547C36.5584 25.508 36.5584 24.7856 37.0034 24.3389C37.4508 23.8898 38.1779 23.8898 38.6253 24.3389L41.3773 27.1013C41.8633 27.5891 41.8633 28.378 41.3773 28.8657L38.6253 31.6281C38.1779 32.0772 37.4508 32.0772 37.0034 31.6281C36.5584 31.1814 36.5584 30.459 37.0034 30.0123L38.1457 28.8657C38.6317 28.3779 38.6316 27.589 38.1457 27.1012L37.0034 25.9547ZM31.4321 23.0087C31.5689 22.3918 32.1803 22.003 32.7969 22.1407C33.4122 22.2781 33.7999 22.8878 33.6635 23.5032L31.5678 32.9584C31.431 33.5752 30.8197 33.9641 30.203 33.8263C29.5878 33.6889 29.2 33.0792 29.3364 32.4638L31.4321 23.0087ZM24.3747 24.3389C24.8221 23.8898 25.5492 23.8898 25.9966 24.3389C26.4416 24.7856 26.4416 25.508 25.9966 25.9547L24.8543 27.1013C24.3683 27.5891 24.3683 28.378 24.8543 28.8657L25.9966 30.0124C26.4416 30.4591 26.4416 31.1815 25.9966 31.6282C25.5492 32.0773 24.8221 32.0773 24.3747 31.6282L21.6227 28.8658C21.1367 28.378 21.1367 27.5891 21.6227 27.1014L24.3747 24.3389Z" fill="white"/>
<defs>
<linearGradient id="paint0_linear_950_6470" x1="0" y1="0" x2="62.75" y2="62.75" gradientUnits="userSpaceOnUse">
<stop stop-color="#7CC7EE"/>
<stop offset="0.858143" stop-color="#206085"/>
</linearGradient>
</defs>
</svg>
