<svg width="226" height="65" viewBox="0 0 226 65" fill="none" xmlns="http://www.w3.org/2000/svg">
<path d="M2.48633e-05 64.1612L3.05176e-05 31.8226L32.3382 31.8226L32.3382 64.1612L2.48633e-05 64.1612Z" fill="#FAFAFA"/>
<path d="M32.2962 64.2346L32.2962 31.896L64.6343 31.896L64.6343 64.2346L32.2962 64.2346Z" fill="#FAFAFA"/>
<path d="M64.5924 64.1923L64.5924 31.8538L96.9306 31.8538L96.9306 64.1923L64.5924 64.1923Z" fill="#2E2E2E"/>
<path d="M56.4935 64.1196L64.5493 56.0637L64.5493 64.1196L56.4935 64.1196Z" fill="#D62340"/>
<path d="M48.4378 64.1196L40.382 64.1196L64.5493 39.952L64.5493 48.0079L48.4378 64.1196Z" fill="#D62340"/>
<path d="M32.3262 64.1195L64.5493 31.896L56.4935 31.896L32.3262 56.0636L32.3262 64.1195Z" fill="#D62340"/>
<path d="M32.3262 48.0077L48.4377 31.896L40.382 31.896L32.3262 39.9519L32.3262 48.0077Z" fill="#D62340"/>
<path d="M16.132 64.1633L0.0198059 48.0509L16.132 31.9385L32.2442 48.0509L16.132 64.1633Z" fill="#2E2E2E"/>
<path d="M96.887 31.8966L80.7754 48.0083L96.887 64.1201L96.887 31.8966Z" fill="#FAFAFA"/>
<path d="M194.218 31.8532L194.218 64.1918L161.88 64.1918L161.88 31.8532L194.218 31.8532Z" fill="#2E2E2E"/>
<path d="M194.249 64.1718L178.138 48.0601L194.249 31.9484L194.249 64.1718Z" fill="#FAFAFA"/>
<path d="M129.663 31.8225L129.663 64.161L97.3249 64.161L97.3249 31.8224L129.663 31.8225Z" fill="#D62340"/>
<path d="M161.959 31.8646L161.959 64.2031L129.621 64.2031L129.621 31.8646L161.959 31.8646Z" fill="#2E2E2E"/>
<path d="M145.816 56.158C141.367 56.158 137.761 52.5513 137.761 48.1021C137.761 43.653 141.367 40.0463 145.816 40.0463C150.266 40.0463 153.872 43.653 153.872 48.1021C153.872 52.5513 150.266 56.158 145.816 56.158Z" fill="#FAFAFA"/>
<path d="M113.478 39.931C108.99 39.931 105.423 43.4986 105.423 47.9869C105.423 52.4752 108.99 56.0428 113.478 56.0428C117.967 56.0428 121.534 52.4752 121.534 47.9869C121.534 43.6137 117.967 39.931 113.478 39.931Z" fill="#FAFAFA"/>
<path d="M161.19 32.3386L161.19 0L193.528 5.65418e-06L193.528 32.3386L161.19 32.3386Z" fill="#FAFAFA"/>
<path d="M193.486 32.4118L193.486 0.0732422L225.824 0.0732478L225.824 32.4118L193.486 32.4118Z" fill="#FAFAFA"/>
<path d="M217.683 32.297L225.739 24.2411L225.739 32.297L217.683 32.297Z" fill="#D62340"/>
<path d="M209.628 32.297L201.572 32.297L225.739 8.12939L225.739 16.1853L209.628 32.297Z" fill="#D62340"/>
<path d="M193.516 32.2967L225.739 0.0732422L217.683 0.0732408L193.516 24.2408L193.516 32.2967Z" fill="#D62340"/>
<path d="M193.516 16.185L209.628 0.0732422L201.572 0.0732408L193.516 8.12911L193.516 16.185Z" fill="#D62340"/>
<path d="M177.322 32.3407L161.21 16.2283L177.322 0.115872L193.434 16.2283L177.322 32.3407Z" fill="#2E2E2E"/>
</svg>
